<?xml version="1.0" encoding="UTF-8"?>
<svg id="Layer_2" data-name="Layer 2" xmlns="http://www.w3.org/2000/svg" viewBox="0 0 778.32 590.38">
  <defs>
    <style>
      .cls-1 {
        fill: #3d1f15;
      }
    </style>
  </defs>
  <g id="Layer_1-2" data-name="Layer 1">
    <g>
      <g>
        <path class="cls-1" d="m691.94,58.03c.91,9.49-.02,19-.77,28.46-.77,9.67-.87,18.95-.07,28.6.9,10.94-2.28,18.6-11.28,24.97-8.22,5.81-17.69,10.02-26.54,14.74-40.11,21.38-79.95,43.25-120.06,64.64-10.85,5.79-21.63,11.7-32.89,16.67-11.55,5.1-23.39,9.49-35.09,14.22-5.23,2.11-2.95,10.71,2.36,8.57,21.24-8.58,42.18-16.94,62.44-27.71,21.37-11.36,42.66-22.86,63.94-34.38,21.23-11.49,42.47-22.98,63.77-34.34,15.21-8.11,38.26-16.32,41.87-35.63,1.08-5.78.26-11.43-.2-17.22-.44-5.55-.22-11.12.14-16.66.76-11.62,2.38-23.28,1.26-34.93-.54-5.64-9.43-5.7-8.88,0h0Z"/>
        <path class="cls-1" d="m462.4,251.18c-64.25-2.21-128.42-6.48-192.51-11.52-30.05-2.36-60.08-5.51-90.16-7.48-20.43-1.34-43.84-.59-61.92-11.7-11.36-6.98-16.07-18.33-15.21-31.45.67-10.22,1.85-21.39,6.29-30.76,3.88-8.19,10.56-13.26,19.52-14.74,12.43-2.06,26.32-.22,38.83.45,28.65,1.52,57.14,4.61,85.67,7.43,33.38,3.3,66.78,6.39,100.21,9.17,33.01,2.74,66.09,5.36,99.17,7.06,19.49,1,36.75-3.3,54.2-11.76,20.93-10.14,41.8-20.41,62.68-30.66,30.27-14.87,60.51-29.77,90.69-44.81,12.21-6.09,24.41-12.19,36.56-18.38,6.51-3.32,13.35-6.4,19.55-10.29,4.32-2.71,5.64-7.84,4.81-12.81-2.1-12.59-14.5-17-25.59-18.65-14.73-2.19-29.58-3.65-44.4-5.07-40.01-3.85-80.11-6.73-120.23-9.26-37.11-2.35-74.27-4.48-111.45-5.51-10.6-.29-21.28-.69-31.88-.15-25.49,1.31-48.42,12.09-71.17,22.67-29.98,13.93-60.66,26.41-90.85,39.88-30.18,13.46-59.97,27.65-89.71,42.04-20.34,9.84-42.78,18.13-56.79,36.88-16.66,22.3-19.11,55.42-8.88,80.87,4.64,11.55,12.32,21.89,23.55,27.68,10.57,5.45,22.51,7.34,34.21,8.57,30.19,3.19,60.45,5.87,90.66,8.95,33.01,3.36,66.02,6.69,99.05,9.77,31.99,2.99,63.94,6.46,95.93,9.33,15.49,1.39,31.08,2.28,46.63,1.52,7.62-.37,15.42-.81,22.81-2.84,10.32-2.84,20.26-7.26,30.01-11.6,31.1-13.84,61.23-29.96,91-46.45,30.25-16.75,60.24-34.12,89.28-52.93,10.08-6.53,20.12-13.2,29.54-20.66,5.99-4.74,11.58-9.25,12.56-17.27,2.39-19.63-19.28-25.03-34.56-24.25-5.69.29-5.72,9.18,0,8.88,7.99-.41,21.22-.41,25.06,8.56.98,2.28,1,4.83.46,7.22-.18.8-.47,1.56-.74,2.33.45-1.31.29-.7.09-.34-.07.13-.16.27-.24.39-.68,1,.42-.49-.11.18-4.66,5.9-11.75,10.37-17.8,14.66-24.86,17.6-51.27,33.14-77.63,48.36-30.75,17.75-61.94,34.83-93.77,50.58-12.26,6.06-24.62,12-37.27,17.21-8.65,3.56-17.49,7.12-26.85,8.15-29.59,3.26-59.46-.53-88.88-3.76-32.06-3.52-64.24-5.98-96.34-9.1-32.17-3.13-64.32-6.42-96.46-9.72-15.38-1.58-30.75-3.35-46.15-4.66-11.92-1.01-24.01-1.6-35.59-4.84-12.59-3.51-22-10.64-28.04-22.39-6.72-13.08-8.62-28.73-6.95-43.21,1.6-13.94,6.65-28.04,16.28-38.45,7.62-8.24,17.34-13.98,27.28-18.98,54.86-27.61,111.11-52.55,167.45-76.95,13.85-6,27.69-11.96,41.37-18.34,12.74-5.93,25.56-11.78,39.18-15.41,13.27-3.53,26.27-3.99,39.84-3.82,33.07.42,66.14,2.29,99.15,4.19,40.29,2.33,80.57,5.08,120.79,8.52,16.67,1.42,33.34,2.95,49.97,4.83,6.67.75,13.37,1.47,20,2.55,6.24,1.03,14.39,2.62,16.93,9.32.66,1.74.86,3.72.33,5.5-.06.2,1.11-1,.27-.25-1.57,1.41-4.08,2.32-5.92,3.3-3.7,1.97-7.43,3.89-11.16,5.8-11.07,5.67-22.19,11.24-33.31,16.8-29.37,14.67-58.82,29.19-88.28,43.68-22.42,11.02-44.84,22.03-67.31,32.96-11.96,5.82-24.33,11.42-37.76,12.51-14.78,1.2-29.86-1.01-44.61-1.86-16.6-.95-33.18-2.17-49.76-3.48-61.84-4.89-123.49-12.36-185.34-16.93-13.75-1.02-27.53-1.82-41.32-2.17-10.26-.26-20.88-.88-30.43,3.52-17.58,8.11-21.09,29.35-22.78,46.58-1.18,12.02-.13,23.86,7.63,33.64,6.02,7.6,14.53,12.49,23.57,15.68,19.73,6.97,41.28,6.16,61.86,7.94,61.98,5.38,123.99,10.43,186.1,14.15,29.69,1.78,59.4,3.25,89.12,4.27,5.72.2,5.71-8.69,0-8.88h0Z"/>
        <path class="cls-1" d="m86.72,241.18c-30.77,1.03-59.44,18.29-75.15,44.74-16.08,27.08-15.74,61.76,3.22,87.4,11.56,15.64,28.4,26.9,47.9,29.17,5.67.66,5.62-8.23,0-8.88-30.38-3.53-52.81-33.71-53.97-63.07-1.05-26.4,13.55-51.61,35.11-66.3,12.73-8.67,27.49-13.65,42.9-14.17,5.7-.19,5.73-9.08,0-8.88h0Z"/>
        <path class="cls-1" d="m733.94,145.59c10.41-.52,28.9,10.87,16.69,21.5-.62.54.42-.28-.75.55-.8.57-1.63,1.1-2.45,1.63-2.24,1.44-4.54,2.81-6.84,4.16-15.99,9.41-32.43,18.09-48.82,26.76-45.76,24.22-91.94,47.69-138.55,70.22-28.75,13.9-59.5,29.2-92.32,27.64-5.72-.27-5.7,8.61,0,8.88,31.45,1.5,61.43-11.88,89.13-25.16,25.19-12.07,50.2-24.53,75.11-37.15,25.16-12.74,50.23-25.67,75.14-38.9,16.53-8.78,33.22-17.45,49.18-27.25,6.83-4.19,14.09-9.38,14.22-18.31.21-14.55-16.81-24.11-29.72-23.47-5.69.28-5.72,9.17,0,8.88h0Z"/>
        <path class="cls-1" d="m454.12,298.06c-46.15-.87-92.39-5.72-138.37-9.45-54.84-4.45-109.66-9.33-164.56-12.96-23.32-1.54-48.46-4.62-71.47-.07-15.83,3.14-28.6,12.06-34.83,27.17-5.5,13.35-5.67,29.25-.65,42.78,13.02,35.03,53.79,39.19,85.9,42.28,47.2,4.55,94.49,8.27,141.82,11.18,47.33,2.9,94.72,4.98,142.12,6.24,23.68.63,47.54,1.76,71.22,1.11,9.36-.26,18.82-1.23,27.61-4.58,7.81-2.98,15.25-6.87,22.54-10.93,6.89-3.84,13.63-7.92,20.43-11.91,4.93-2.89.46-10.57-4.48-7.67-13.62,7.99-27.23,17.05-42.16,22.43-9.37,3.37-19.39,3.82-29.26,3.84-11.31.03-22.62-.25-33.92-.46-45.21-.84-90.4-2.44-135.56-4.78-45.52-2.36-91.01-5.48-136.42-9.36-21.01-1.8-42.17-3.25-63.08-6.02-16.63-2.2-35-6.07-47.59-17.97-21.79-20.59-18.29-64.01,12.74-73.33,14.75-4.43,30.91-3.28,46.12-2.68,8.21.32,16.42.81,24.62,1.34,51.74,3.31,103.4,7.89,155.06,12.11,47.29,3.86,94.65,8.3,142.07,10.26,3.37.14,6.74.25,10.11.32,5.72.11,5.72-8.78,0-8.88h0Z"/>
        <path class="cls-1" d="m68.08,404.07c56.11,3.71,112.1,9.41,168.12,14.12,66.83,5.62,133.79,11.34,200.84,13.53,20.83.68,42.15,1.64,62.89-.84,12.93-1.54,23.94-7.64,35.42-13.49,50.65-25.8,100.12-54.23,148.79-83.57,22.43-13.52,44.86-27.24,66.23-42.41,10.03-7.12,33.79-20.37,24.44-36-4.79-8.01-15.39-10.39-23.94-11.35-4.26-.48-6.24,6.59-2.24,8.28.92.39-1.37-2.9-.75-2.57-.18-.09.59-.44-.21.37-.97.99-.04.19-.8,1.09-2.55,3.02-5.78,5.56-8.89,7.97-11.05,8.59-23.01,16.08-34.85,23.5-31.88,19.97-64.59,38.61-97.27,57.24-15.73,8.96-31.49,17.87-47.16,26.92-4.95,2.86-.48,10.54,4.48,7.67,32.69-18.89,65.66-37.28,98.24-56.35,16.84-9.86,33.61-19.84,50.1-30.27,12.13-7.68,24.42-15.45,35.49-24.64,3.92-3.25,16.04-14.4,6.09-18.6-.75,2.76-1.49,5.52-2.24,8.28,4.85.54,10.76,1.7,14.56,5.03,1.29,1.14,2.33,2.53,2.56,4.28.15,1.13-.83,4.19-.28,2.8-.66,1.68-1.38,2.08-3.26,3.94-5.24,5.2-11.35,9.58-17.33,13.86-20.48,14.66-42.02,27.89-63.56,40.93-48.1,29.13-97.05,57.15-147,83-7.26,3.76-14.54,7.49-21.96,10.9-3.86,1.77-6.84,3.02-11.84,3.89-17.4,3.01-37.91,1.97-56.19,1.52-64.02-1.59-127.99-6.98-191.8-12.25-57.98-4.79-115.91-10.38-173.92-14.76-4.25-.32-8.51-.63-12.76-.91-5.71-.38-5.68,8.51,0,8.88h0Z"/>
        <path class="cls-1" d="m746.46,178.3c-.01,25.62-3.66,51.17-4.97,76.73-.29,5.71,8.59,5.7,8.88,0,1.31-25.57,4.96-51.11,4.97-76.73,0-5.72-8.88-5.73-8.88,0h0Z"/>
        <path class="cls-1" d="m722.67,309.88c23.86,1.32,37.65,21.43,43.29,42.78,6.38,24.15,5.2,56.02-11.92,75.52-10.7,12.19-25.41,20.08-39.11,28.36-16.76,10.13-33.53,20.27-50.29,30.4-33.84,20.46-67.68,40.92-101.52,61.37-30.57,18.48-67.26,39.43-104.49,31.68-5.58-1.16-7.96,7.4-2.36,8.57,33.46,6.96,68.99-7.2,97.34-24.12,36.73-21.92,73.22-44.26,109.83-66.39,18.66-11.28,37.32-22.56,55.98-33.84,14.54-8.79,30.3-17.28,41.48-30.39,18.06-21.18,20.48-53.59,14.52-79.92-6.05-26.74-23.35-51.28-52.74-52.91-5.71-.32-5.69,8.57,0,8.88h0Z"/>
        <path class="cls-1" d="m34.51,394.33c-6.93,13.94,1.38,34.96,16.9,39.55,3.96,1.17,8.39,1.32,12.48,1.74,17.88,1.84,35.86,2.91,53.79,4.04,58.52,3.71,117.1,6.66,175.65,9.73,50.98,2.68,102,5.05,152.94,8.58,6.4.44,12.8.89,19.18,1.53.97.1,1.94.2,2.91.31,1.68.19-.55-.27,1.27.17,4.43,1.09,8.51,3.4,12.33,5.87,19.91,12.83,30.37,38.12,20.18,60.47-11.16,24.47-39.46,26.44-62.98,25.14-59.29-3.3-118.55-9.02-177.76-13.56-30.36-2.33-60.71-4.66-91.07-6.99-14.99-1.15-29.98-2.3-44.97-3.45-14.05-1.08-29.2-.79-42.81-4.78-4.85-1.42-11.92-3.92-14.18-9-1.89-4.23.22-9.47,1.7-13.46.96-2.59-1.55-5.83-4.28-5.62-10.53.8-22.96,2.88-30.83,10.58-8.62,8.44-7.18,23.3-1.6,33,7.28,12.66,21.28,16.26,34.63,18.93,17.11,3.42,34.53,5.04,51.89,6.64,70.56,6.51,141.3,10.71,211.98,15.54,40.28,2.75,80.54,5.72,120.74,9.42,5.69.52,5.66-8.36,0-8.88-64.42-5.94-128.98-9.96-193.52-14.29-32.12-2.16-64.23-4.39-96.32-6.97-32.1-2.59-65.05-3.98-96.58-10.9-7.33-1.61-15.27-3.36-20.94-8.62-5.2-4.82-7.94-12.19-7.39-19.23,1.03-13.06,17.38-15.54,27.93-16.34-1.43-1.87-2.86-3.75-4.28-5.62-3.34,9.04-4.31,18.67,3.5,25.68,9.19,8.26,22.95,9.81,34.72,10.82,30.46,2.62,60.97,4.69,91.45,7.03,62.21,4.77,124.42,9.55,186.64,14.32,15.37,1.18,30.75,2.36,46.12,3.54,12.6.97,25.31,2.14,37.94.96,22.9-2.14,43.49-13.43,50.69-36.42,7.04-22.46-1.87-46.46-19.85-61.02-7.34-5.95-15.47-10.81-24.88-11.9-15.21-1.77-30.6-2.41-45.88-3.34-26.35-1.59-52.72-3.01-79.08-4.41-62.31-3.32-124.63-6.44-186.93-10.04-23.77-1.37-47.54-2.77-71.28-4.56-7.48-.57-14.96-1.15-22.41-1.96-1.2-.13-2.41-.27-3.61-.42-1.27-.16-.35.01-2.23-.32-.84-.15-4.35-1.22-2.42-.35-9.34-4.18-16.68-16.89-11.82-26.67,2.54-5.1-5.12-9.61-7.67-4.48h0Z"/>
        <path class="cls-1" d="m63.64,437.06c-3.37,25.53,2.53,51.47-.84,76.99-.32,2.4,2.27,4.42,4.44,4.44,2.66.03,4.13-2.07,4.44-4.44,3.37-25.53-2.53-51.47.84-76.99.32-2.4-2.27-4.42-4.44-4.44-2.66-.03-4.13,2.07-4.44,4.44h0Z"/>
      </g>
      <path class="cls-1" d="m103.79,187.65c45.05,1.88,90.07,4.3,135.08,6.85,48.82,2.77,97.62,5.76,146.42,8.91,24.29,1.57,48.58,3.17,72.87,4.84,2.85.2,2.84-4.25,0-4.44-45.34-3.1-90.7-6.03-136.06-8.82-48.7-2.99-97.42-5.83-146.15-8.36-24.05-1.25-48.1-2.42-72.16-3.42-2.86-.12-2.85,4.32,0,4.44h0Z"/>
      <path class="cls-1" d="m102.42,164.3c45.73,1.91,91.44,4.51,137.13,7.24,50.08,2.99,100.14,6.22,150.2,9.55,24.49,1.63,48.98,3.29,73.47,4.97,2.85.2,2.84-4.25,0-4.44-46.03-3.15-92.07-6.24-138.11-9.2-49.96-3.21-99.93-6.29-149.92-9-24.25-1.31-48.5-2.54-72.76-3.56-2.86-.12-2.85,4.32,0,4.44h0Z"/>
      <path class="cls-1" d="m102.42,213.75c45.58,1.9,91.14,4.19,136.7,6.61,49.89,2.65,99.77,5.49,149.64,8.56,24.59,1.51,49.17,3.08,73.74,4.77,2.85.2,2.84-4.25,0-4.44-45.87-3.14-91.77-5.92-137.68-8.57-49.78-2.87-99.57-5.57-149.37-8.01-24.34-1.2-48.69-2.33-73.04-3.35-2.86-.12-2.85,4.32,0,4.44h0Z"/>
      <path class="cls-1" d="m54.39,306.66c62.71,2.62,125.4,5.73,188.04,9.72,37,2.36,73.96,5.5,110.92,8.4,36.83,2.88,73.68,5.96,110.59,7.57,9.37.41,19.16,1.26,28.51.11,2.17-.27,4.04-.94,6.11-1.72,6.88-2.56,13.51-5.76,19.99-9.17,13.36-7.04,26.45-14.54,39.86-21.49,57.04-29.54,113.7-59.81,170.99-88.85,6.96-3.53,13.93-7.03,20.91-10.51,2.56-1.28.31-5.11-2.24-3.84-57.08,28.44-113.36,58.47-169.92,87.93-13.92,7.25-28.01,14.22-41.74,21.81-13.11,7.24-26.05,15.15-40.2,20.25-7.15,2.57-16.22,1.58-24.25,1.33-35-1.11-69.97-4.1-104.87-6.8-37.63-2.91-75.23-6.11-112.88-8.69-59.01-4.05-118.12-6.94-177.21-9.53-7.54-.33-15.08-.65-22.62-.97-2.86-.12-2.85,4.32,0,4.44h0Z"/>
      <path class="cls-1" d="m49.55,326.02c66.34,2.8,132.4,9.99,198.71,13.4,41.01,2.11,81.99,5.02,122.97,7.69,36.81,2.4,73.67,5.24,110.55,6.36,4.02.12,8.09.3,12.11.09,3.43-.18,6.19-1.68,9.25-3.17,18.16-8.84,35.88-18.62,53.7-28.11,56.42-30.04,113.15-59.61,170.14-88.55,7.77-3.94,15.55-7.86,23.35-11.75,2.56-1.28.31-5.11-2.24-3.84-60.62,30.21-120.66,61.73-180.52,93.41-18.61,9.85-37.13,19.88-55.84,29.53-5.11,2.63-10.71,6.2-16.08,7.85-.79.24-.07.04-.57.1-.59.07-1.19.08-1.79.11-1.76.07-3.53.05-5.3.03-33.87-.41-67.81-3.34-101.6-5.52-42.26-2.73-84.51-5.69-126.79-8.07-27.79-1.56-55.55-3.19-83.3-5.31-34.16-2.62-68.3-5.52-102.5-7.49-8.08-.46-16.16-.87-24.24-1.21-2.86-.12-2.85,4.32,0,4.44h0Z"/>
      <path class="cls-1" d="m54.39,351.18c47.49,2,94.82,6.48,142.21,10,47.63,3.54,95.37,5.53,143.05,8.15,24.13,1.32,48.26,2.69,72.39,4.12,23.45,1.39,47.19,1.96,70.51,4.85,4.86.6,9.82.83,14.54-.69,5.16-1.66,9.99-4.7,14.74-7.29,10.52-5.73,21.19-11.14,31.84-16.62,21.11-10.84,42.15-21.82,63.17-32.83,42.53-22.28,84.96-44.77,127.67-66.71,5.27-2.71,10.55-5.41,15.83-8.09,2.55-1.3.3-5.13-2.24-3.84-42.36,21.56-84.38,43.79-126.46,65.88-21.04,11.05-42.09,22.07-63.2,33-10.52,5.44-21.05,10.86-31.6,16.24-5.2,2.65-10.35,5.38-15.47,8.18-5.11,2.79-10.42,6.34-16.03,7.99-5.14,1.51-10.54.63-15.74-.05-5.59-.73-11.22-.99-16.85-1.35-11.84-.76-23.69-1.48-35.53-2.2-23.89-1.44-47.79-2.82-71.69-4.15-47.55-2.65-95.16-4.59-142.67-7.86-47-3.23-93.9-7.8-140.95-10.33-5.83-.31-11.67-.59-17.5-.84-2.86-.12-2.85,4.32,0,4.44h0Z"/>
      <path class="cls-1" d="m70.45,461.76c23.82.99,47.63,2.14,71.43,3.33,30.14,1.5,60.27,3.08,90.4,4.7,32.44,1.75,64.88,3.55,97.31,5.4,30.73,1.75,61.45,3.55,92.17,5.41,24.91,1.51,49.82,3.06,74.73,4.73,2.53.17,5.05.34,7.58.51,2.85.2,2.84-4.25,0-4.44-24.02-1.64-48.05-3.15-72.08-4.62-30.24-1.85-60.48-3.63-90.73-5.37-32.44-1.86-64.88-3.68-97.33-5.44-30.62-1.66-61.25-3.28-91.87-4.82-24.7-1.24-49.41-2.45-74.12-3.52-2.49-.11-4.99-.21-7.48-.32-2.86-.12-2.85,4.32,0,4.44h0Z"/>
      <path class="cls-1" d="m70.45,484.43c23.84.99,47.68,2.08,71.52,3.18,30.22,1.41,60.44,2.86,90.66,4.36,32.55,1.61,65.1,3.27,97.65,4.98,30.83,1.62,61.66,3.29,92.49,5.06,25.06,1.43,50.12,2.91,75.17,4.58,2.51.17,5.03.34,7.54.51,2.85.2,2.84-4.25,0-4.44-24.04-1.65-48.1-3.08-72.16-4.48-30.33-1.76-60.66-3.42-90.99-5.03-32.55-1.73-65.11-3.4-97.67-5.02-30.73-1.53-61.46-3.03-92.19-4.47-24.85-1.17-49.71-2.3-74.56-3.36-2.48-.11-4.96-.21-7.45-.31-2.86-.12-2.85,4.32,0,4.44h0Z"/>
      <path class="cls-1" d="m70.45,507.11c23.71.99,47.41,2.21,71.11,3.47,29.71,1.59,59.42,3.28,89.12,5.03,32.07,1.88,64.13,3.83,96.19,5.81,30.29,1.88,60.58,3.79,90.87,5.75,24.87,1.61,49.75,3.24,74.61,4.93,2.48.17,4.97.34,7.45.51,2.85.2,2.84-4.25,0-4.44-23.92-1.64-47.84-3.22-71.76-4.77-29.82-1.94-59.63-3.83-89.46-5.69-32.07-2-64.14-3.95-96.21-5.85-30.19-1.79-60.38-3.52-90.57-5.16-24.66-1.34-49.33-2.63-74-3.71-2.45-.11-4.9-.21-7.36-.32-2.86-.12-2.85,4.32,0,4.44h0Z"/>
      <path class="cls-1" d="m463.62,207.79c59.22-29.47,119.75-56.18,179.55-84.44,16.74-7.91,33.42-15.95,50-24.2,2.56-1.27.31-5.11-2.24-3.84-59.22,29.47-119.75,56.18-179.55,84.44-16.74,7.91-33.42,15.95-50,24.2-2.56,1.27-.31,5.11,2.24,3.84h0Z"/>
      <path class="cls-1" d="m465.75,231.96c59.16-29.46,118.39-58.79,177.59-88.19,16.62-8.25,33.23-16.51,49.83-24.78,2.56-1.27.31-5.11-2.24-3.84-59.16,29.46-118.39,58.79-177.59,88.19-16.62,8.25-33.23,16.51-49.83,24.78-2.56,1.27-.31,5.11,2.24,3.84h0Z"/>
      <path class="cls-1" d="m467.88,185.75c58.28-29.02,117.25-56.61,175.84-85,16.52-8.01,33.01-16.08,49.45-24.27,2.56-1.27.31-5.11-2.24-3.84-58.28,29.02-117.25,56.61-175.84,85-16.52,8.01-33.01,16.08-49.45,24.27-2.56,1.27-.31,5.11,2.24,3.84h0Z"/>
    </g>
  </g>
</svg>