<?xml version="1.0" encoding="UTF-8"?>
<svg id="Layer_2" data-name="Layer 2" xmlns="http://www.w3.org/2000/svg" viewBox="0 0 947.31 557.5">
  <defs>
    <style>
      .cls-1 {
        fill: #3d1f15;
      }
    </style>
  </defs>
  <g id="Layer_1-2" data-name="Layer 1">
    <g>
      <path class="cls-1" d="m278.92,1.66c-59.8,42.01-118.72,85.25-179.05,126.5-15.01,10.26-30.11,20.38-45.37,30.25-7.78,5.03-15.6,10-23.48,14.89-3.74,2.32-11.46,4.67-10.8,10.34.34,2.89,3.27,5.2,4.91,7.42,2.04,2.76,3.86,5.69,5.5,8.7,3.22,5.91,5.61,12.2,7.38,18.68,2.98,10.93,4.16,22.3,3.86,33.62-.1,3.62-.3,7.27-.84,10.86-.16,1.05-.45,2.09-.6,3.14-.32,2.33.39-.48.1.38-1.31,3.85-.67,5.96,2.78,8.29,6.91,4.68,15.41,7.58,23.05,10.78,30.73,12.84,62.08,24.28,93.36,35.68,32.17,11.73,64.43,23.24,96.89,34.16,8.54,2.87,17.09,5.92,25.8,8.27,2.65.71,4.78,1.3,7.29-.19,7.77-4.6,19.74-21.28,28.39-9.17,3.17,4.44,5.59,9.72,6.85,15.04.69,2.9-.69,6.64.77,9.17,1.01,1.74,3.21,2.66,4.93,3.53,7.65,3.88,15.59,7.23,23.43,10.67,30.02,13.17,60.26,25.83,90.51,38.45,35.51,14.82,71.09,29.47,106.77,43.87,23.57,9.52,47.11,19.4,71.13,27.76,2.05.71,4.13,1.49,6.26,1.96,5.57,1.24,7.95-7.32,2.36-8.57-4.81-1.07-9.51-3.1-14.12-4.81-9.39-3.5-18.73-7.15-28.05-10.83-27.49-10.84-54.86-21.99-82.19-33.21-52.95-21.73-106.04-43.35-158.28-66.77-5.12-2.3-10.16-4.73-15.21-7.18-1.46-.71-.54-.85-.42-.12.09.53.68,3.87,1.31,2.58.84-1.73.12-4.89-.18-6.66-1.39-8.13-5.52-17.26-11.25-23.27-6.64-6.97-16.99-5.35-24.5-.59-4.04,2.56-9.17,6.21-12.28,9.88-2.47,2.92.84.32.65.42,1.04-.51,1.14.39.27,0-5.2-2.32-11.51-3.38-16.94-5.16-54.67-17.9-108.86-37.64-162.59-58.19-19-7.27-39.08-13.89-56.99-23.68-.83-.45-1.61-1.01-2.45-1.44-.98-.5.03-.13-.06,0,.01-.02-.33-.26-.33-.3-.04-.5.79,1.5.79,1.46.21,1.47-1.72,6.08-.23,2.81.32-.69.58-1.37.8-2.09.67-2.23.91-4.65,1.19-6.95,2.1-17.34.28-35.85-5.43-52.36-1.8-5.19-4-10.29-6.68-15.09-1.28-2.31-2.68-4.55-4.19-6.71-1.59-2.29-4.16-4.56-5.32-7.07.15,1.14.3,2.28.45,3.42-.42,1.44,1.55-.29,2.44-.78,1.74-.95,3.42-1.99,5.11-3.04,4.54-2.82,9.06-5.67,13.57-8.55,8.72-5.55,17.38-11.2,25.99-16.91,17.23-11.42,34.29-23.11,51.27-34.91,33.46-23.26,66.68-46.86,99.8-70.6,18.74-13.44,37.5-26.85,56.37-40.1,4.64-3.26.21-10.97-4.48-7.67h0Z"/>
      <path class="cls-1" d="m283.43,8.62c75.69,11.21,151.76,38.25,208.6,91.09,16.81,15.63,31.57,33.24,44.01,52.54,3.09,4.79,10.78.34,7.67-4.48-44.31-68.74-116.05-112.07-193.58-134.06C329.02,7.73,307.5,3.27,285.79.06c-5.59-.83-8.01,7.73-2.36,8.57h0Z"/>
      <path class="cls-1" d="m544.46,154.29c78.48-28.92,164.23-36.72,244.42-9.96,42.77,14.28,83.66,37.65,116.27,69,1.03.99,4.18,5.35,5.55,5.54.36.05-.54-2.26-.88-2.52-.87-.65.68-.77-.08-.03-.49.48-.84,2.55-1.07,3.21-1.13,3.18-2.33,6.33-3.47,9.51-5,13.95-13.02,33.45-6.34,48.01,2.38,5.19,10.04.68,7.67-4.48-2.73-5.94-.62-14.25.79-20.25,1.83-7.8,4.43-15.4,7.16-22.93,1.38-3.79,4.37-8.87,4.21-13.04-.11-2.88-2.76-4.87-4.66-6.76-12-11.95-25.35-22.59-39.27-32.2-52.37-36.18-114.9-56.4-178.48-58.53-52.62-1.76-104.94,8.71-154.19,26.86-5.32,1.96-3.02,10.55,2.36,8.57h0Z"/>
      <path class="cls-1" d="m635.35,505.86c27.1-27.91,57.95-52.65,87.65-77.68,41.52-34.98,83.57-69.37,126.42-102.72,18.58-14.46,37.29-28.82,56.66-42.2,4.67-3.23.24-10.93-4.48-7.67-38.55,26.63-75.11,56.31-111.52,85.75-40.93,33.1-81.47,66.74-121.06,101.45-13.58,11.91-27.36,23.8-39.96,36.78-3.98,4.1,2.29,10.39,6.28,6.28h0Z"/>
      <path class="cls-1" d="m315.85,348c35.77-27.52,82-33.99,125.84-28.81,24.29,2.87,48.13,9.16,71.39,16.6,20.04,6.41,39.74,13.95,58.61,23.28,18.67,9.24,36.66,20.16,52.78,33.41,8.18,6.73,15.91,14.01,23.03,21.86,6.16,6.79,12.35,11.44,20.83,5.03,20.16-15.23,39.4-31.89,59.04-47.8,19.43-15.74,38.87-31.48,58.3-47.23,44.01-35.65,88.02-71.3,132.03-106.95,4.44-3.6-1.88-9.85-6.28-6.28-77.73,62.97-155.46,125.94-233.19,188.9-4.74,3.84-9.4,8.59-14.57,11.81-3.83,2.39-4.9,1.66-7.53-1.16-1.83-1.97-3.59-4-5.44-5.95-7.08-7.46-14.7-14.4-22.75-20.8-16-12.73-33.44-23.47-51.76-32.52-39.16-19.35-82.69-33.7-125.94-39.97-47.84-6.94-99.49-1.4-138.86,28.9-4.47,3.44-.05,11.16,4.48,7.67h0Z"/>
      <path class="cls-1" d="m31.64,188.83c45.07-7.1,92.46-.6,134.82,15.97,20.65,8.08,40,19.33,58.5,31.47,17.61,11.56,34.33,24.58,48.82,39.92,16.46,17.42,29.38,37.84,36.47,60.81,1.68,5.45,10.26,3.12,8.57-2.36-13.21-42.78-44.92-75.26-80.92-100.32-39.01-27.17-81.87-46.98-129.16-54-26.38-3.92-53.09-4.21-79.46-.06-5.63.89-3.24,9.45,2.36,8.57h0Z"/>
      <path class="cls-1" d="m42.22,252.34c-6.62,5.64-13.23,11.29-19.85,16.93-5.81,4.95-12.41,9.61-17.39,15.43-8.25,9.65-5.82,22.47,4.05,29.98,10.36,7.89,25.43,9.08,37.76,12.07,13.37,3.25,26.7,6.66,40,10.2,55.83,14.85,111.29,31.51,165.77,50.79,7.25,2.57,13.57,4.96,19.51,9.99,5.32,4.51,10.48,8.44,16.92,11.28,14.43,6.36,30.58,7.39,45.75,3.2,5.5-1.52,3.17-10.09-2.36-8.57-13.39,3.7-27.88,2.86-40.54-3.05-10.15-4.73-17.02-14.01-27.53-18.07-23.49-9.07-47.74-16.55-71.75-24.11-50.58-15.93-101.7-30.43-153.32-42.61-7.02-1.66-14.69-2.69-21.2-5.95-7.28-3.64-12.59-11.51-6.77-18.88,4.44-5.63,11.14-10.1,16.56-14.72,6.89-5.88,13.79-11.76,20.68-17.64,4.36-3.72-1.95-9.97-6.28-6.28h0Z"/>
      <path class="cls-1" d="m332.7,410.61c51.72,25.15,103.44,50.3,155.16,75.45,24.29,11.81,48.67,23.51,71.96,37.22,11.8,6.95,23.36,14.29,35.32,20.95,10.04,5.59,21.61,12.92,33.44,13.26,11.17.32,20.34-6.73,28.42-13.59,10.93-9.26,21.78-18.62,32.66-27.93,21.61-18.48,43.23-36.97,64.84-55.45,43.51-37.21,87.01-74.41,130.52-111.62,12.07-10.32,24.14-20.64,36.21-30.97,9.29-7.95,21.64-16.1,25.12-28.56,2.98-10.69-1.32-22.71-9.63-29.84-9.02-7.74-21.29-9.51-32.64-7.12-5.59,1.18-3.23,9.74,2.36,8.57,10.37-2.18,22.45.47,28.49,9.88,6.58,10.25,2.69,20.43-5.48,28.22-9.14,8.72-19.22,16.6-28.82,24.81-10.1,8.64-20.21,17.28-30.31,25.93-39.86,34.09-79.72,68.17-119.57,102.26-20.21,17.28-40.42,34.57-60.63,51.85-10.1,8.64-20.21,17.28-30.31,25.93-8.18,6.99-17.81,17.95-29.29,18.73-6.07.41-11.95-2.32-17.27-4.9-5.85-2.83-11.56-5.93-17.2-9.15-10.41-5.94-20.55-12.32-30.87-18.41-21.98-12.99-44.93-24.17-67.87-35.32-53.38-25.96-106.76-51.91-160.14-77.87-5.12-2.49-9.63,5.17-4.48,7.67h0Z"/>
      <path class="cls-1" d="m318.71,343.48c56.29-51.73,113.81-102.19,174.19-149.12,17.3-13.45,34.85-26.57,52.62-39.38,4.6-3.31.17-11.02-4.48-7.67-62.63,45.12-122.13,94.4-179.79,145.69-16.4,14.59-32.66,29.34-48.82,44.19-4.22,3.88,2.08,10.15,6.28,6.28h0Z"/>
      <path class="cls-1" d="m41.63,205.68c40.13,1.96,80.02,9.9,117.55,24.36,36.7,14.14,71.13,34.72,99.87,61.67,16.23,15.22,30.54,32.39,42.49,51.16,1.53,2.4,5.38.18,3.84-2.24-21.46-33.7-50.38-62.07-83.82-83.84-33.8-22-71.86-37.25-111.13-46.2-22.6-5.15-45.66-8.22-68.8-9.35-2.86-.14-2.85,4.3,0,4.44h0Z"/>
      <path class="cls-1" d="m46.89,233.73c36.08,5.78,71.98,13.41,106.65,25.05,34.18,11.48,67.27,27.02,96.21,48.71,16.38,12.27,31.22,26.57,43.99,42.57,1.78,2.23,4.91-.93,3.14-3.14-22.75-28.52-52.04-51.04-84.23-67.97-32.63-17.16-67.9-28.88-103.66-37.5-20.13-4.86-40.49-8.72-60.93-12-2.8-.45-4,3.83-1.18,4.28h0Z"/>
      <path class="cls-1" d="m51.27,252.7c28.51,5.2,56.59,12.75,83.98,22.23,33.25,11.51,65.49,25.94,96.16,43.18,19.13,10.74,37.62,22.59,55.38,35.48,2.32,1.68,4.54-2.17,2.24-3.84-30.83-22.38-63.91-41.58-98.55-57.43-29.87-13.67-60.85-24.95-92.56-33.57-15-4.08-30.17-7.55-45.47-10.34-2.79-.51-3.99,3.77-1.18,4.28h0Z"/>
      <path class="cls-1" d="m324.63,353.69c42.54-12.24,87.68-14.26,131.36-7.63,44.1,6.69,86.91,21.92,125.3,44.63,21.75,12.87,42.02,28.15,60.23,45.68,2.06,1.98,5.21-1.15,3.14-3.14-32.77-31.53-72.11-55.86-114.53-72.12-42.14-16.16-87.55-24.4-132.71-23.07-25.01.74-49.93,4.45-73.98,11.37-2.74.79-1.58,5.08,1.18,4.28h0Z"/>
      <path class="cls-1" d="m654.74,416.46c-19.83,20.62-28.67,50.34-23.51,78.45.52,2.81,4.8,1.62,4.28-1.18-4.87-26.51,3.71-54.72,22.37-74.13,1.98-2.06-1.16-5.21-3.14-3.14h0Z"/>
      <path class="cls-1" d="m333.52,363.11c40.18-3.43,80.79,2.74,119.55,13.15,41.73,11.21,82.08,27.65,120.16,48.02,20.17,10.79,39.73,22.76,58.36,36.05,2.33,1.66,4.55-2.19,2.24-3.84-34.24-24.43-71.57-44.52-110.36-60.71-39.64-16.56-81.28-29.18-123.93-34.94-21.86-2.95-44.02-4.05-66.03-2.17-2.83.24-2.85,4.69,0,4.44h0Z"/>
      <path class="cls-1" d="m332.31,371.84c41.25.52,81.84,10.01,120.62,23.63,40.1,14.09,78.49,32.64,115.93,52.66,20.48,10.95,40.69,22.39,60.84,33.93,2.48,1.42,4.73-2.41,2.24-3.84-36.7-21.02-73.65-41.7-111.93-59.72-38.24-17.99-77.95-33.57-119.29-42.77-22.46-5-45.39-8.04-68.42-8.33-2.86-.04-2.86,4.41,0,4.44h0Z"/>
      <path class="cls-1" d="m635.62,484.42c32.15-31.12,65.4-61.09,99.55-90,34.43-29.15,69.76-57.25,105.84-84.33,20.2-15.16,40.64-30.01,61.29-44.55,2.32-1.63.1-5.49-2.24-3.84-36.75,25.88-72.82,52.72-108.09,80.57-35.55,28.07-70.3,57.17-104.04,87.39-18.81,16.85-37.31,34.05-55.45,51.61-2.06,1.99,1.09,5.13,3.14,3.14h0Z"/>
      <path class="cls-1" d="m638.52,458.28c9.14-7.83,18.52-15.4,27.84-23.03,17.32-14.18,34.69-28.28,52.09-42.36,21.27-17.2,42.58-34.35,63.95-51.44,21.36-17.08,42.77-34.09,64.29-50.97,17.23-13.51,34.5-26.98,52.04-40.09,1.67-1.25,3.35-2.49,5.02-3.74,2.27-1.68.06-5.54-2.24-3.84-16.84,12.45-33.38,25.31-49.89,38.2-21.22,16.58-42.32,33.31-63.38,50.11-21.78,17.38-43.5,34.83-65.17,52.34-18.14,14.66-36.25,29.35-54.31,44.1-10.59,8.65-21.2,17.27-31.65,26.09-.58.49-1.16.98-1.74,1.48-2.17,1.86.98,4.99,3.14,3.14h0Z"/>
      <path class="cls-1" d="m14.4,294.22c15.17,3.6,30.17,7.96,45.14,12.31,20.55,5.98,41.03,12.19,61.49,18.47,21.51,6.6,42.99,13.29,64.46,20.01,18.02,5.64,36.03,11.31,54.05,16.94,10.06,3.14,20.1,6.44,30.25,9.27.48.13.97.27,1.45.39,2.77.71,3.95-3.58,1.18-4.28-8.86-2.26-17.58-5.25-26.3-7.97-17.27-5.38-34.52-10.82-51.79-16.23-21.28-6.67-42.57-13.31-63.89-19.88-20.83-6.42-41.69-12.77-62.61-18.92-15.91-4.68-31.85-9.33-47.94-13.34-1.44-.36-2.89-.71-4.33-1.06-2.78-.66-3.97,3.62-1.18,4.28h0Z"/>
      <path class="cls-1" d="m274.43,369.46c-2.58,8.08,4.94,14.91,11.14,18.62,8.56,5.12,19.3,7.91,29.28,6.8,5.57-.63,10.8-2.55,15.04-6.27,2.15-1.89-1-5.02-3.14-3.14-8.42,7.39-21.62,5.88-31.36,2.37-6.11-2.2-19.41-8.61-16.67-17.19.87-2.73-3.42-3.9-4.28-1.18h0Z"/>
      <path class="cls-1" d="m328.67,388.34c39.29,18.27,78.58,36.54,117.86,54.8,38.98,18.13,77.98,36.21,116.77,54.75,21.78,10.41,43.48,20.97,65.07,31.76,2.55,1.27,4.8-2.56,2.24-3.84-38.44-19.21-77.24-37.68-116.15-55.91-39.04-18.28-78.16-36.4-117.25-54.58-22.1-10.28-44.2-20.55-66.3-30.83-2.58-1.2-4.83,2.63-2.24,3.84h0Z"/>
      <path class="cls-1" d="m635.98,530.14c15.41-12.31,30.42-25.12,45.48-37.85,23.5-19.86,46.92-39.82,70.34-59.78,25.85-22.04,51.69-44.11,77.55-66.14,22.52-19.19,45.05-38.37,67.69-57.43,8.23-6.93,16.47-13.84,24.76-20.69,3.06-2.53,6.13-5.05,9.21-7.54,1.21-.98,2.42-1.95,3.63-2.91.52-.42,1.05-.83,1.57-1.24.24-.19,1.45-1.13,1.09-.85.75-.58,1.5-1.15,2.26-1.7,2.28-1.67.07-5.53-2.24-3.84-12.56,9.18-24.31,19.59-36.22,29.59-21.87,18.35-43.62,36.85-65.36,55.37-25.85,22.01-51.66,44.05-77.49,66.08-24.04,20.51-48.09,41.01-72.2,61.43-16.41,13.9-32.8,27.84-49.5,41.4-1.23,1-2.46,1.99-3.69,2.98-2.23,1.78.93,4.91,3.14,3.14h0Z"/>
    </g>
  </g>
</svg>