<?xml version="1.0" encoding="UTF-8"?>
<svg id="Layer_2" data-name="Layer 2" xmlns="http://www.w3.org/2000/svg" viewBox="0 0 734.39 601.79">
  <defs>
    <style>
      .cls-1 {
        fill: #3d1f15;
      }
    </style>
  </defs>
  <g id="Layer_1-2" data-name="Layer 1">
    <g>
      <path class="cls-1" d="m229.82,436.73c8.13,19.39,19.07,39.49,38.69,49.25,21.73,10.81,47.77,6.82,66.44-8.17,4.46-3.58-1.86-9.83-6.28-6.28-16.16,12.98-39.8,15.78-58.05,5.52-16.09-9.04-25.34-26.24-32.24-42.69-2.18-5.19-10.78-2.91-8.57,2.36h0Z"/>
      <path class="cls-1" d="m335.74,482.53c26.45,24.39,52.9,48.79,79.35,73.18,13,11.99,25.6,24.77,39.27,36,10.69,8.77,22.18,13.4,35.45,7.3,30.33-13.96,59.59-31.47,88.23-48.58,28.95-17.3,57.3-35.61,84.98-54.89,12.69-8.84,26.28-17.39,37.82-27.72,9.48-8.49,17.58-21.14,11.19-33.91-2.74-5.49-7.49-9.6-12.08-13.51-6.6-5.63-13.43-10.99-20.36-16.21-13.27-9.99-27.02-19.32-40.77-28.62-29.9-20.23-59.81-40.45-89.71-60.67-15.28-10.33-30.48-20.77-45.83-30.99-8.31-5.54-18.95-10.11-29.1-6.73-8.09,2.69-13.26,10.48-21.2,13.59-11.19,4.38-27.93-.59-35.68-9.64-9.31-10.88-.58-31.84-16.34-37.48-5.39-1.93-7.71,6.65-2.36,8.57,4.35,1.56,3.87,8.13,4.17,11.84.56,6.88,1.56,13.78,5.43,19.69,10.48,15.99,36.49,22.51,52.98,12.84,5.43-3.19,10.51-9.96,16.85-11.26,12.53-2.58,24.22,8.61,33.6,14.95,28.11,19.01,56.22,38.02,84.33,57.03,27.09,18.32,54.75,36.04,80.81,55.83,6.3,4.79,12.51,9.72,18.48,14.92,5.29,4.6,11.37,10.07,10.07,17.84-2.27,13.6-19.82,22.82-29.92,30.08-51.44,36.94-105.3,70.49-161.14,100.38-7.89,4.22-15.81,8.38-23.78,12.45-8.44,4.31-15.01,6.12-23.57,1.09-7.33-4.31-13.41-10.81-19.62-16.53-7.02-6.47-14.03-12.94-21.05-19.42-28.07-25.89-56.14-51.77-84.2-77.66-4.2-3.87-10.5,2.4-6.28,6.28h0Z"/>
      <path class="cls-1" d="m395.82,240.55c-20.67-9.34-43.11-12.75-65.6-14.1-25.94-1.55-51.97-2.26-77.95-2.57-24.8-.3-50.05-1.11-74.79.93-21.81,1.8-40.16,9.39-54.98,25.77-15.73,17.39-28.27,38.06-41.75,57.18l-44.87,63.62c-7.37,10.45-14.75,20.91-22.12,31.36-5.4,7.65-15.54,17.42-13.48,27.69,1.86,9.24,10.46,14.69,19.24,15.94,11.9,1.69,24.77-.63,36.71-1.32,57.98-3.31,116.09-4.26,174.15-2.95,5.72.13,5.72-8.75,0-8.88-47.47-1.07-94.97-.64-142.41,1.38-12.04.51-24.08,1.12-36.11,1.83-5.83.34-11.67.72-17.5,1.1-5.72.38-11.89,1.1-17.43-.78-4.07-1.39-8.37-5.13-7.98-9.81.44-5.24,6.4-11.1,9.31-15.24,6.95-9.86,13.9-19.71,20.86-29.57,26.86-38.09,52.94-76.91,80.75-114.32,6.05-8.14,12.79-16.2,21.06-22.17,8.38-6.06,18.03-9.36,28.18-10.98,10.66-1.71,21.58-1.65,32.35-1.82,12.15-.19,24.3-.25,36.45-.2,26.88.12,53.76.81,80.6,2.09,24.74,1.18,49.95,3.15,72.83,13.49,5.17,2.34,9.69-5.32,4.48-7.67h0Z"/>
      <path class="cls-1" d="m338.21,479.93c52.75-57.13,103.22-116.32,155.97-173.44,3.87-4.2-2.39-10.49-6.28-6.28-52.75,57.13-103.22,116.32-155.97,173.44-3.87,4.2,2.39,10.49,6.28,6.28h0Z"/>
      <path class="cls-1" d="m234.82,436.57c51.13-58.8,104.25-115.85,155.38-174.65,3.74-4.3-2.52-10.61-6.28-6.28-51.13,58.8-104.25,115.85-155.38,174.65-3.74,4.3,2.52,10.61,6.28,6.28h0Z"/>
      <path class="cls-1" d="m712.23,430.45c1.82-9.41,4.35-18.72,7.63-27.73,2.52-6.92,5.6-14.9,10.64-20.07,3.99-4.1-2.28-10.38-6.28-6.28-5.98,6.13-9.42,14.66-12.39,22.54-3.56,9.46-6.25,19.27-8.17,29.18-1.08,5.59,7.48,7.98,8.57,2.36h0Z"/>
      <path class="cls-1" d="m730.24,371.88c-39.35-24.4-77.59-50.53-117.05-74.75-19.03-11.68-38.43-22.92-59.32-30.96-19.18-7.37-38.08-11.04-58.34-6.04-20.88,5.15-40.32,17.04-54.97,32.71-3.9,4.17,2.37,10.47,6.28,6.28,12.7-13.58,29.02-24.02,46.9-29.3,8.88-2.62,18.1-3.89,27.36-3.22,10.4.76,20.74,4.42,30.41,8.13,20.15,7.74,38.86,18.8,57.2,30.06,18.51,11.37,36.78,23.11,55,34.94,20.61,13.39,41.17,26.85,62.05,39.81,4.87,3.02,9.34-4.66,4.48-7.67h0Z"/>
      <path class="cls-1" d="m721.43,365.14c3.71-5.6,7.54-11.27,10.39-17.37,1.28-2.73,2.66-5.78,2.57-8.87-.16-5.05-4.32-6.93-8.34-8.69-17.82-7.82-36.41-13.98-54.55-20.99-22.08-8.53-42.99-18.08-63.7-29.53-14.76-8.16-29.73-15.96-45.38-22.28-14.51-5.86-30.39-11.31-46.16-11.94-33.43-1.35-65.22,19.44-87.24,42.93-3.91,4.17,2.36,10.46,6.28,6.28,18.89-20.14,44.93-38.25,73.29-40.21,14.76-1.02,29.46,3.41,43.21,8.36,14.82,5.33,28.96,12.34,42.82,19.79,10.62,5.71,20.93,12.02,31.8,17.25,9.05,4.35,18.34,8.23,27.66,11.98,18.8,7.59,37.88,14.45,56.8,21.75,3.38,1.3,6.77,2.6,10.09,4.02.51.22,5.23,2.91,5.53,2.73-.38.23-.52-.71-.76-.7-1.37,0,1.04-1.34-.23-.1-.12.12-.65,2.12-.95,2.87-2.61,6.47-6.96,12.46-10.79,18.24-3.17,4.78,4.52,9.23,7.67,4.48h0Z"/>
      <path class="cls-1" d="m693.35,324.18c11.35-13.73,22.71-27.46,34.06-41.19,1.85-2.24,1.69-5.33-.9-6.98-19.29-12.25-44.03-10.87-65.34-17.62-23.61-7.47-45.3-19.62-67.97-29.37-22.19-9.55-46.03-17.4-70.5-16.23-20.3.97-37.78,9.67-53.44,22.22-18.26,14.63-33.08,33.09-47.15,51.63-3.46,4.55,4.25,8.98,7.67,4.48,22.21-29.25,51.13-66.59,90.89-69.33,47.32-3.27,87.98,27.25,130.6,42.6,11.65,4.2,23.5,6.96,35.72,8.87,12.16,1.89,24.47,3.7,35.05,10.42-.3-2.33-.6-4.65-.9-6.98-11.35,13.73-22.71,27.46-34.06,41.19-3.62,4.37,2.63,10.69,6.28,6.28h0Z"/>
      <path class="cls-1" d="m648.42,253.93c20.62-20.86,41.24-41.73,61.86-62.59,2.26-2.29,1.36-6.67-1.96-7.42,2.05.46-.03-.13-.93-.63-1.78-.98-3.59-1.91-5.4-2.83-6.22-3.16-12.57-6.05-19-8.75-20.11-8.44-41.13-14.85-62.68-18.33-53.72-8.67-117.31,2.42-152.68,47.6-19.95,25.48-32.17,55.74-48.49,83.45-2.91,4.94,4.77,9.41,7.67,4.48,14.04-23.85,25.04-49.41,40.5-72.44,7.75-11.54,16.56-21.6,27.95-29.66,12.23-8.65,25.69-15.46,39.96-20.02,46.27-14.78,96.75-6.15,140.91,11.62,7.17,2.89,14.22,6.08,21.12,9.58,2.64,1.34,5.76,3.82,8.7,4.48l-1.96-7.42c-20.62,20.86-41.24,41.73-61.86,62.59-4.02,4.07,2.26,10.36,6.28,6.28h0Z"/>
      <path class="cls-1" d="m21.72,397.47c-2.99-7.09-6.99-15.91-3.61-23.51,1.64-3.69,4.62-6.75,7.12-9.87,3.08-3.84,6.15-7.7,9.21-11.56,10.72-13.54,21.3-27.2,31.72-40.96,21.46-28.34,42.27-57.16,62.41-86.45,11.57-16.82,22.91-33.79,34.03-50.9,3.13-4.81-4.56-9.26-7.67-4.48-40.86,62.82-84.67,123.71-131.38,182.3-5.2,6.52-12.47,13.25-14.75,21.5-2.47,8.94.89,18.11,4.34,26.3,2.19,5.19,10.79,2.91,8.57-2.36h0Z"/>
      <path class="cls-1" d="m422.63,283.9c7.58-40.73-14.46-75.84-46.57-99.1-37.38-27.08-83.63-36.04-129.11-34.48-15.54.53-31.02,2.2-46.39,4.48-13.9,2.06-28.83,3.6-41.06,11.07-4.87,2.97-.41,10.66,4.48,7.67,10.12-6.18,22.34-7.57,33.84-9.39,12.87-2.03,25.82-3.59,38.83-4.43,25.48-1.65,51.3-.6,76.16,5.59,33.88,8.45,68.44,27.45,88.35,56.93,11.89,17.61,16.81,38.3,12.9,59.29-1.04,5.59,7.52,7.98,8.57,2.36h0Z"/>
      <path class="cls-1" d="m427.92,278.61c5-19.42,7.73-39.48,7.93-59.54.23-23.39-2.23-46.94-12.97-68.01-10.3-20.21-26.15-37.34-43.29-51.96-16.94-14.46-35.39-27.55-56.07-36.06-24.04-9.89-49.7-12.11-75.26-7.93-5.63.92-3.24,9.48,2.36,8.57,21.28-3.48,42.82-1.98,63.21,5.14,20.47,7.15,38.73,19.48,55.39,33.15,16.26,13.34,31.44,28.61,42.24,46.79,11.79,19.87,15.13,41.6,15.49,64.44.33,21.26-2.29,42.47-7.6,63.05-1.43,5.54,7.14,7.9,8.57,2.36h0Z"/>
      <path class="cls-1" d="m242.27,57.98c-22.07,34.9-48.08,67.12-70.15,102.02-3.06,4.85,4.62,9.31,7.67,4.48,22.07-34.9,48.08-67.12,70.15-102.02,3.06-4.85-4.62-9.31-7.67-4.48h0Z"/>
      <path class="cls-1" d="m433.42,272.4c24.81-43.91,35.33-100.58,23.75-150.08-11.86-50.66-57.97-88.38-101.86-111.81-6.41-3.42-13.11-7.39-20-9.74-6.34-2.16-11.16.4-14.42,6.01-4.55,7.84-8.16,16.38-12.19,24.5-4.5,9.05-8.99,18.11-13.49,27.16-2.53,5.1,5.13,9.61,7.67,4.48,7.06-14.23,14.13-28.45,21.19-42.68,1.43-2.88,2.57-6.41,4.48-8.98,2.54-3.4,4.59-1.85,8.03-.23,5.87,2.77,11.66,5.71,17.35,8.84,22.12,12.14,42.81,27.05,60.16,45.45,15.3,16.22,28.23,34.8,33.82,56.6,5.63,21.92,5.82,45.23,3.06,67.59-3.37,27.36-11.65,54.38-25.23,78.41-2.82,4.98,4.86,9.47,7.67,4.48h0Z"/>
      <path class="cls-1" d="m20.44,436.66c-.1-.17.27.87.31,1.01.4,1.25-.12-.14.07-.12.31.04-.39,1.23.05.04.13-.36.2-.74.33-1.1.51-1.38,1.16-2.82,2.27-4.95,3.07-5.91,6.65-11.56,10.26-17.14,10.75-16.67,22.33-32.81,34.01-48.83,23.39-32.07,47.25-64.02,72.8-94.42,2.85-3.4,5.7-6.86,8.87-9.98.21-.2,1.43-1.28.68-.66,1.55-1.29,6.59-4.17,9.68-5.6,7.87-3.65,16.58-5.59,25.16-6.57,17.45-1.99,35.09-.51,52.58.07,21.04.7,42.07.85,63.11,1.95,21.46,1.12,42.89,2.75,64.27,4.89,4.96.5,10.83.44,15.34,2.84,3.9,2.08,5.85,6.1,7.18,10.13,2.49,7.56,3.93,15.18,7.79,22.24,16.34,29.94,55.66,39.66,84.17,20.98,3.36-2.2,7.43-6.1,11.79-5.33,4.73.84,9.61,5.67,13.44,8.33,8.92,6.18,17.82,12.4,26.7,18.65,17.46,12.29,34.82,24.71,52.1,37.25,17.57,12.75,35.05,25.64,52.43,38.65,8.4,6.29,16.78,12.61,25.13,18.95,7.89,5.99,17.27,11.73,23.24,19.79,4.88,6.59,6.71,16.34-.31,22.12-4.42,3.64,1.9,9.89,6.28,6.28,14.11-11.63,5.42-31.06-5.71-41-16.13-14.42-34.64-26.74-51.98-39.66-36.56-27.24-73.54-53.92-110.92-80.02-4.45-3.11-8.91-6.21-13.37-9.3-4.11-2.85-8.31-6.48-13.1-8.11-8.86-3.02-15.31,2.86-22.42,7.13-16.36,9.82-37.49,9.43-53.38-1.13-7.31-4.86-13.23-11.7-17.19-19.51-3.88-7.65-4.59-16.36-8.27-24.07-3.7-7.75-10.44-11.69-18.75-12.97-10.9-1.68-22.06-2.32-33.05-3.23-42.94-3.57-86.05-4.61-129.1-5.68-23.74-.59-55.08,0-72.42,19.04-10.23,11.23-19.52,23.39-28.89,35.34-14.29,18.21-28.31,36.63-42.08,55.23-13.19,17.82-26.24,35.78-38.55,54.22-4.42,6.62-8.79,13.3-12.75,20.22-2.29,3.99-5.01,8.4-6,12.95-.41,1.86-.49,3.87.55,5.55,2.98,4.87,10.67.41,7.67-4.48h0Z"/>
    </g>
  </g>
</svg>