<?xml version="1.0" encoding="UTF-8"?>
<svg id="Layer_2" data-name="Layer 2" xmlns="http://www.w3.org/2000/svg" viewBox="0 0 742.98 494.16">
  <defs>
    <style>
      .cls-1 {
        fill: #3d1f15;
      }
    </style>
  </defs>
  <g id="Layer_1-2" data-name="Layer 1">
    <g>
      <path class="cls-1" d="m113.26,382.72c-21.63-53.86-42.17-108.16-61.99-162.71-9.81-26.98-19.43-54.02-28.9-81.11-2.27-6.48-4.52-12.97-6.77-19.46-2.42-6.99-6.15-14.56-6.72-22-1.02-13.37,14.91-17.54,24.89-20.73,55.88-17.88,112.44-33.64,169.51-47.24,28.88-6.88,57.9-13.21,87.03-18.98,6.64-1.32,13.79-4,16.3,4.32,1.91,6.34,2.73,13.2,3.86,19.71,2.48,14.26,4.51,28.6,6.23,42.97,6.64,55.53,8.91,111.47,14.98,167.05,5.88,53.86,14.94,108.76,36.12,158.97,9.24,21.9,22.21,43.47,42.5,56.76,18.61,12.19,43.42,17,64.18,7.47,6.26-2.88,11.39-7.89,16.53-12.39,9.51-8.34,18.8-16.95,28.03-25.59,64.06-59.96,126.12-122.41,185.1-187.38,7.37-8.12,14.68-16.3,21.92-24.54,3.76-4.28-2.5-10.59-6.28-6.28-59.98,68.34-124.24,133.15-190.04,195.87-17.41,16.59-35.67,35.2-54.24,49.43-13.11,10.05-34.5,8.23-49.51,1.8-23.66-10.13-38.53-32.51-48.62-55.25-22.45-50.55-31.3-107.3-37.12-161.89-6.04-56.61-8.28-113.58-15.39-170.08-1.74-13.8-3.73-27.58-6.15-41.28-1.67-9.48-2.01-25.19-12.83-29.23-5.11-1.9-10.66-.44-15.8.57-7.37,1.45-14.73,2.94-22.09,4.47-14.71,3.05-29.4,6.24-44.05,9.58-58.6,13.34-116.69,28.95-174.08,46.79C31.78,67.94-3.02,73.43.21,99.39c.79,6.38,3.39,12.5,5.48,18.53,2.47,7.13,4.94,14.26,7.43,21.38,4.82,13.79,9.67,27.57,14.57,41.33,19.71,55.35,40.09,110.47,61.47,165.2,5.12,13.1,10.3,26.18,15.54,39.24,2.1,5.24,10.7,2.95,8.57-2.36h0Z"/>
      <path class="cls-1" d="m104.69,388.11c-4.4,21.53,1.05,42.98,14.85,60.04,15.4,19.04,38.07,28.88,61.9,32.13,14.49,1.97,29.17,2.33,43.75,3.25,15.42.97,30.84,2.1,46.25,3.23,30.49,2.24,60.98,4.52,91.53,5.7,14.27.55,28.55.78,42.83,1.27,13.42.47,26.92.84,40.3-.56,12.91-1.35,25.51-4.28,37.32-9.76,11.77-5.46,21.22-14.15,30.35-23.19,43.79-43.37,87.4-86.93,131.09-130.39,24.5-24.37,48.99-48.73,73.49-73.1,5.87-5.84,12.1-11.47,17.6-17.65,3.48-3.92,7.55-9.33,6.96-14.89-.93-8.8-12.43-16.28-20.56-16.95-5.7-.47-5.67,8.42,0,8.88,3.57.29,7.59,3.45,9.85,6.04,3.92,4.5-.9,8.98-4.28,12.49-9.76,10.13-19.95,19.87-29.93,29.79-19.81,19.7-39.61,39.4-59.42,59.1-40.13,39.92-80.27,79.83-120.4,119.75-8.91,8.87-17.55,18.56-27.84,25.87-10.09,7.18-22.04,11.32-34.13,13.63-24.87,4.75-50.94,1.92-76.07,1.31-55.8-1.34-111.37-7.02-167.07-10.2-27.44-1.57-55.7-3.16-77.51-21.99-17.79-15.36-27.07-38.11-22.31-61.45,1.14-5.58-7.42-7.97-8.57-2.36h0Z"/>
      <path class="cls-1" d="m326.11,381c-57.56,0-115.11.42-172.67.88-12.92.1-25.83.21-38.75.33-5.71.05-5.73,8.94,0,8.88,54.84-.5,109.68-.9,164.51-1.11,15.63-.06,31.27-.1,46.9-.1,5.72,0,5.73-8.88,0-8.88h0Z"/>
      <path class="cls-1" d="m316.88,21.71c17.71-2.76,35.3-6.55,53.17-8.15,5.67-.51,11.79-1.37,17.46-.54,4.03.59,8.02,1.93,11.86,3.24,9.5,3.25,18.94,7.52,27.16,13.34,4.39,3.11,9.22,6.91,8.72,12.69-1.76,20.16-4.77,40.29-7.19,60.37-9.4,78.14-18.85,156.27-27.88,234.45-3.76,32.53-7.65,65.06-10.68,97.66-.53,5.69,8.36,5.65,8.88,0,2.72-29.17,6.15-58.28,9.5-87.38,4.78-41.66,9.72-83.31,14.69-124.95,4.63-38.81,9.3-77.61,13.97-116.42,2.55-21.18,5.61-42.38,7.58-63.63,1.47-15.86-19.79-25.39-31.67-30.53-7.95-3.44-16.52-6.87-25.21-7.8-15.11-1.62-31.78,2.14-46.65,4.66-8.69,1.47-17.36,3.04-26.07,4.4-5.63.88-3.24,9.44,2.36,8.57h0Z"/>
      <path class="cls-1" d="m444.11,47.87c10.12-5.37,19.94-7.78,30.97-4.9,10.64,2.79,21.01,6.94,30.89,11.75,5.33,2.6,16.9,7.49,19.2,12.36,1.52,3.23-.06,8.23-.87,11.48-1.01,4.09-2.07,8.17-3.25,12.21-2.5,8.62-5.59,17.05-8.64,25.49-13.07,36.18-24.03,73.22-35.01,110.08-10.81,36.28-21.07,72.73-30.72,109.34-10.49,39.79-20.5,79.74-32.63,119.07-1.69,5.48,6.88,7.82,8.57,2.36,11.43-37.05,20.96-74.64,30.81-112.13,10.31-39.29,21.25-78.41,32.86-117.33,11.65-39.09,23.69-78.09,37.39-116.51,3.09-8.67,5.85-17.39,8.16-26.3,1.68-6.46,4.34-14.53,1.51-21.05-3.21-7.39-13.45-11.96-20.14-15.37-11.5-5.86-23.77-10.94-36.29-14.15-13.19-3.38-25.29-.45-37.3,5.93-5.05,2.68-.57,10.35,4.48,7.67h0Z"/>
      <path class="cls-1" d="m531.2,95.35c11.57-2.57,24.57-5.45,36.35-2.47,9.26,2.34,14.95,12.51,21.48,18.73,4.14,3.94,10.43-2.33,6.28-6.28-7.9-7.52-14.16-18.17-25.4-21.01-13.39-3.38-27.9-.46-41.08,2.47-5.58,1.24-3.22,9.81,2.36,8.57h0Z"/>
      <path class="cls-1" d="m588.75,132.5c2.63-3.47,5.49-7.13,9-9.78,1.08-.81,2.42-1.6,3.5-2.02.47-.18,1.05-.23,1.49-.46,1.01-.53-.33.29-.72-.2.07.08,2.26.78,1.08.29,1.07.44,2.1.99,3.12,1.53,2.56,1.36,5.05,2.85,7.51,4.36,11.13,6.83,23.18,14.8,32.82,22.52,1.89,1.51,4.43,1.81,6.28,0,1.57-1.54,1.87-4.79,0-6.28-9.16-7.33-19-13.93-28.86-20.28-4.54-2.93-9.13-5.85-13.93-8.34-3.71-1.92-6.77-3.22-10.91-1.8-7.87,2.69-13.22,9.58-18.05,15.96-1.46,1.93-.29,4.95,1.59,6.08,2.26,1.36,4.64.31,6.08-1.59h0Z"/>
      <path class="cls-1" d="m649.57,150.19c5.72,0,5.73-8.88,0-8.88s-5.73,8.88,0,8.88h0Z"/>
      <path class="cls-1" d="m653.23,159.44c3.71,1.12,7.66,1.13,11.46,1.83,1.68.31,3.07.53,4.26,1.38,1.73,1.24,3.04,3.29,4.37,4.92,6.81,8.33,14,16.34,21.52,24.02,4,4.09,10.28-2.19,6.28-6.28-7.9-8.08-15.43-16.51-22.55-25.29-3.01-3.72-6.17-6.23-10.94-7.21-4-.81-8.14-.76-12.04-1.94-5.49-1.66-7.83,6.92-2.36,8.57h0Z"/>
      <path class="cls-1" d="m688.65,204.2c2.58-.34,5.11-.89,7.66-1.39.62-.12,1.25-.24,1.88-.35.38-.07.76-.13,1.14-.19.12-.02,1.17-.16.54-.08-.63.08.4-.04.52-.06.36-.04.72-.07,1.08-.09.62-.04,1.24-.07,1.86-.05.26,0,.52.03.78.04.96.03-.9-.28-.05,0,.18.06.44.16.62.16.43.01-.81-.56-.31-.13.6.51.59.39,1.31,1.14.62.65,1.18,1.35,1.73,2.05,2.6,3.29,5.17,6.61,7.75,9.92,1.48,1.89,4.73,1.55,6.28,0,1.87-1.87,1.48-4.39,0-6.28-2.68-3.43-5.33-6.9-8.06-10.3-2.45-3.06-5.18-5.09-9.14-5.42-2.98-.25-6.06.31-8.98.84-1.39.25-2.77.53-4.15.82-.62.13-1.25.25-1.87.37-.4.07-2.26.35-.59.13-2.3.3-4.56,1.83-4.44,4.44.1,2.15,1.97,4.76,4.44,4.44h0Z"/>
      <path class="cls-1" d="m694.32,186.24c-68.74,67.16-133.9,138.02-195.37,211.89-17.28,20.77-34.26,41.8-50.92,63.08-3.49,4.45,2.76,10.78,6.28,6.28,59.26-75.66,122.48-148.25,189.17-217.45,18.75-19.46,37.8-38.64,57.13-57.52,4.1-4-2.19-10.28-6.28-6.28h0Z"/>
      <path class="cls-1" d="m650.24,153.05c-61.68,76.02-117.83,156.51-168.33,240.36-14.19,23.55-27.91,47.38-41.18,71.46-2.76,5.01,4.91,9.5,7.67,4.48,46.74-84.79,99.14-166.49,156.94-244.17,16.6-22.31,33.66-44.26,51.18-65.85,3.57-4.4-2.68-10.73-6.28-6.28h0Z"/>
      <path class="cls-1" d="m646.21,144.53c-15.58,24.82-31.66,49.33-47.24,74.16-3.05,4.86,4.64,9.32,7.67,4.48,15.58-24.82,31.66-49.33,47.24-74.16,3.05-4.86-4.64-9.32-7.67-4.48h0Z"/>
      <path class="cls-1" d="m589.38,107.79c-46.37,89-86.63,181.1-124.43,274.02-10.49,25.78-20.77,51.65-30.91,77.58-2.08,5.33,6.5,7.64,8.57,2.36,36.27-92.74,74.34-184.87,117.23-274.77,11.98-25.11,24.36-50.04,37.22-74.71,2.64-5.06-5.03-9.56-7.67-4.48h0Z"/>
      <path class="cls-1" d="m378.55,20.03c-5.93,100.59-8.37,201.38-7.24,302.14.32,28.68.94,57.36,1.83,86.03.18,5.7,9.06,5.73,8.88,0-3.13-100.72-2.76-201.54,1.18-302.23,1.12-28.66,2.54-57.31,4.23-85.95.34-5.71-8.55-5.69-8.88,0h0Z"/>
      <path class="cls-1" d="m410.61,19.08c-1.3,23.05-2.87,46.09-4.52,69.12-1.96,27.55-4.05,55.1-6.14,82.65-2.21,28.99-4.44,57.99-6.62,86.98-2.1,27.9-4.15,55.8-6.05,83.71-1.62,23.74-3.14,47.48-4.33,71.25-.13,2.55-.25,5.09-.37,7.64-.13,2.86,4.31,2.85,4.44,0,1.07-23.06,2.51-46.11,4.04-69.15,1.84-27.56,3.84-55.11,5.9-82.66,2.16-29,4.39-57.99,6.6-86.98,2.13-27.9,4.25-55.79,6.27-83.7,1.72-23.73,3.37-47.47,4.77-71.22.15-2.55.3-5.09.44-7.64.16-2.86-4.28-2.85-4.44,0h0Z"/>
      <path class="cls-1" d="m465.14,40.66c-3.81,22.93-7.44,45.9-11.05,68.86-4.31,27.45-8.57,54.92-12.85,82.37-4.52,28.97-9.05,57.94-13.67,86.9-4.45,27.92-8.97,55.84-13.68,83.72-4.03,23.89-8.18,47.76-12.71,71.56-.48,2.52-.96,5.04-1.45,7.56-.54,2.79,3.74,3.99,4.28,1.18,4.49-23.1,8.57-46.28,12.52-69.47,4.7-27.54,9.19-55.1,13.61-82.69,4.64-28.96,9.19-57.94,13.71-86.92,4.34-27.81,8.65-55.63,13.01-83.45,3.71-23.67,7.44-47.35,11.32-70.99.41-2.49.82-4.98,1.23-7.47.46-2.8-3.82-4-4.28-1.18h0Z"/>
      <path class="cls-1" d="m491.4,44.6c-3.83,23.06-8.25,46.02-12.81,68.94-5.53,27.78-11.32,55.51-17.21,83.22-6.23,29.33-12.57,58.63-18.92,87.94-6.11,28.2-12.23,56.39-18.24,84.61-5.09,23.88-10.13,47.76-14.86,71.71-.5,2.54-1,5.08-1.49,7.61-.54,2.79,3.74,3.99,4.28,1.18,4.52-23.23,9.37-46.39,14.28-69.54,5.91-27.86,11.94-55.7,17.97-83.53,6.35-29.31,12.7-58.62,18.96-87.96,5.99-28.08,11.9-56.19,17.57-84.34,4.76-23.66,9.39-47.36,13.48-71.14.43-2.51.86-5.01,1.27-7.52.46-2.8-3.81-4-4.28-1.18h0Z"/>
      <path class="cls-1" d="m512.24,54.41c-4.56,22.79-9.89,45.41-15.43,67.98-6.62,26.98-13.6,53.87-20.68,80.73-7.48,28.35-15.09,56.67-22.69,84.99-7.33,27.32-14.65,54.63-21.79,82-6.12,23.44-12.13,46.92-17.65,70.51-.58,2.5-1.16,5-1.73,7.5-.64,2.78,3.65,3.97,4.28,1.18,5.25-22.94,11.03-45.76,16.92-68.53,7-27.05,14.22-54.04,21.45-81.02,7.6-28.33,15.23-56.66,22.74-85.01,7.21-27.2,14.32-54.43,21.12-81.75,5.78-23.24,11.37-46.54,16.25-69.99.51-2.47,1.02-4.94,1.51-7.41.56-2.79-3.72-3.99-4.28-1.18h0Z"/>
      <path class="cls-1" d="m565.32,91.34c-17.34,46.59-34.76,93.15-52.31,139.66-19.65,52.09-39.43,104.14-59.59,156.04-9.55,24.57-19.17,49.12-29.04,73.56-1.07,2.65,3.23,3.8,4.28,1.18,18.77-46.49,36.77-93.3,54.68-140.14,19.84-51.9,39.44-103.88,58.93-155.91,9.14-24.4,18.25-48.8,27.34-73.22,1-2.68-3.29-3.84-4.28-1.18h0Z"/>
      <path class="cls-1" d="m579.07,99.27c-9.04,21.21-18.07,42.43-27.06,63.67-10.52,24.84-20.99,49.71-31.38,74.6-11.01,26.36-21.94,52.76-32.74,79.21-10.28,25.19-20.45,50.42-30.38,75.75-8.43,21.48-16.71,43.02-24.54,64.72-.82,2.27-1.63,4.53-2.44,6.81-.96,2.7,3.33,3.86,4.28,1.18,7.45-20.97,15.38-41.77,23.45-62.51,9.69-24.88,19.62-49.65,29.68-74.38,10.7-26.32,21.54-52.58,32.46-78.8,10.56-25.34,21.19-50.66,31.88-75.94,9.19-21.73,18.41-43.44,27.66-65.14.98-2.31,1.97-4.62,2.95-6.93,1.11-2.6-2.72-4.87-3.84-2.24h0Z"/>
      <path class="cls-1" d="m609.77,117.75c-21.75,44-43.81,87.85-65.78,131.74-23.91,47.78-47.81,95.57-71.28,143.57-10.39,21.25-20.71,42.54-30.71,63.98-1.2,2.58,2.63,4.83,3.84,2.24,19.54-41.93,40.13-83.37,60.7-124.8,24.11-48.57,48.45-97.03,72.71-145.52,11.49-22.97,22.97-45.94,34.36-68.97,1.26-2.55-2.57-4.81-3.84-2.24h0Z"/>
      <path class="cls-1" d="m625.31,131.37c-23.34,43.18-46.99,86.19-70.55,129.25-25.64,46.87-51.27,93.76-76.47,140.87-11.16,20.86-22.25,41.75-33.02,62.82-1.3,2.54,2.53,4.79,3.84,2.24,21.05-41.19,43.15-81.85,65.22-122.5,25.87-47.66,51.96-95.19,77.97-142.77,12.32-22.53,24.64-45.07,36.85-67.67,1.36-2.51-2.47-4.76-3.84-2.24h0Z"/>
      <path class="cls-1" d="m472.88,434.96c24.36-37.55,49.97-74.28,76.15-110.57,25.84-35.81,52.28-71.18,79.04-106.3,13.44-17.63,26.96-35.2,40.54-52.72,1.73-2.23-1.39-5.4-3.14-3.14-25.15,32.47-50.13,65.07-74.72,97.97-27.18,36.34-53.92,73.02-79.82,110.29-14.27,20.54-28.28,41.26-41.89,62.24-1.56,2.41,2.28,4.63,3.84,2.24h0Z"/>
      <path class="cls-1" d="m456.62,467.31c32.64-34.03,65.27-68.06,97.91-102.08,32.64-34.03,65.27-68.06,97.91-102.08,18.43-19.22,36.86-38.43,55.29-57.65,1.98-2.06-1.16-5.21-3.14-3.14-32.64,34.03-65.27,68.06-97.91,102.08-32.64,34.03-65.27,68.06-97.91,102.08-18.43,19.22-36.86,38.43-55.29,57.65-1.98,2.06,1.16,5.21,3.14,3.14h0Z"/>
      <path class="cls-1" d="m461.1,458.43c25.99-38.4,53.67-75.65,82.41-112.04,29.7-37.6,60.56-74.3,92.67-109.87,17.03-18.87,34.43-37.41,52.29-55.5,2.01-2.04-1.13-5.18-3.14-3.14-32.6,33.01-63.69,67.5-93.73,102.84-31.15,36.66-61.17,74.3-89.87,112.92-15.26,20.53-30.12,41.35-44.46,62.54-1.61,2.37,2.24,4.6,3.84,2.24h0Z"/>
    </g>
  </g>
</svg>