<?xml version="1.0" encoding="UTF-8"?>
<svg id="Layer_2" data-name="Layer 2" xmlns="http://www.w3.org/2000/svg" viewBox="0 0 872.4 725.95">
  <defs>
    <style>
      .cls-1 {
        fill: #3d1f15;
      }
    </style>
  </defs>
  <g id="Layer_1-2" data-name="Layer 1">
    <g>
      <g>
        <path class="cls-1" d="m304.86,154.53c.27-4.37,3.35-8.31,7.65-9.45,5.52-1.46,10.85,2.71,14.92,5.89,8.75,6.86,17.28,14.01,25.87,21.07,16.98,13.96,33.84,28.06,50.57,42.31,17.01,14.48,33.89,29.11,50.64,43.89,14.45,12.75,31.45,25.37,40.95,42.52,10.69,19.29,10.99,42.04,1.03,61.6-2.59,5.08,5.07,9.59,7.67,4.48,9.89-19.43,11.06-40.39,3.39-60.79-7.91-21.05-25.55-35.33-41.9-49.8-39.12-34.63-78.95-68.46-119.46-101.45-8.63-7.03-19.12-18.81-31.16-18.93-10.43-.1-18.43,8.62-19.06,18.65-.36,5.71,8.53,5.69,8.88,0h0Z"/>
        <path class="cls-1" d="m224.88,165.55c24.85-.5,49.68-2.58,74.55-1.74,5.72.19,5.71-8.69,0-8.88-24.87-.84-49.69,1.24-74.55,1.74-5.71.12-5.73,9,0,8.88h0Z"/>
        <path class="cls-1" d="m299.28,163.1c32.76,28.31,65.14,57.06,97.11,86.27,15.98,14.6,31.86,29.32,47.64,44.15,6.46,6.07,16.94,13.06,19.9,21.79,2.62,7.7-1.08,16.68-7.12,21.7-15.89,13.2-38.34,3.24-53.06-6.4-16.99-11.12-32.56-24.39-47.56-38.03-32.12-29.2-63.09-59.74-94.51-89.68-16.37-15.6-33.09-31.19-45.92-49.95-4.55-6.65-9.66-15.68-18.02-17.99-7.35-2.03-15.82,1.55-20.36,7.42-3.45,4.47,2.79,10.8,6.28,6.28,2.28-2.96,5.66-5.35,9.55-5.35,4.65-.01,8.1,4.51,10.63,7.92,5.68,7.68,10.84,15.59,17.05,22.89,13.76,16.14,29.62,30.41,44.94,45.02,32.36,30.84,63.95,62.91,97.93,91.98,15.04,12.86,31.2,26.67,49.31,34.98,15.58,7.14,35.31,9.28,49.42-2.32,12.76-10.49,14.65-28.84,3.75-41.21-6.73-7.63-14.83-14.3-22.25-21.25-8.43-7.89-16.89-15.75-25.37-23.58-37.13-34.25-74.83-67.89-113.05-100.92-4.31-3.72-10.62,2.54-6.28,6.28h0Z"/>
        <path class="cls-1" d="m173.42,147.38C115.47,243.25,60.45,341.28,10.84,441.75,4.99,453.6-.41,466.18.02,479.67c.41,12.67,5.34,24.46,13.56,34.03,3.73,4.34,9.99-1.96,6.28-6.28-7.61-8.86-11.64-20.4-10.91-32.09.8-12.71,7.15-24.35,12.77-35.49,11.91-23.62,24.03-47.13,36.38-70.52,24.85-47.11,50.59-93.75,77.19-139.89,14.99-26.01,30.27-51.86,45.8-77.56,2.97-4.91-4.71-9.38-7.67-4.48h0Z"/>
        <path class="cls-1" d="m15.45,516.85c38.49,42.12,78.54,82.97,120.47,121.68,36.95,34.11,77.54,69.97,130.16,73.38,23.53,1.53,47.7-4.67,62.17-24.46,3.38-4.62-4.33-9.06-7.67-4.48-12.52,17.13-34.47,21.36-54.49,20.06-22.58-1.46-44.02-9.77-63.14-21.57-22.74-14.02-42.56-32.38-62.09-50.46-19.46-18.01-38.44-36.54-57.11-55.36-21.1-21.27-41.8-42.95-62.01-65.07-3.87-4.23-10.13,2.07-6.28,6.28h0Z"/>
        <path class="cls-1" d="m493.29,367.55c-42.57,80.59-86.98,160.18-130.36,240.33-12.22,22.58-24.35,45.2-36.34,67.9-2.67,5.05,5,9.55,7.67,4.48,42.57-80.59,86.98-160.18,130.36-240.33,12.22-22.58,24.35-45.2,36.34-67.9,2.67-5.05-5-9.55-7.67-4.48h0Z"/>
        <path class="cls-1" d="m365.69,364.74c-39.61,72.06-79.23,144.12-118.84,216.18-11.19,20.36-22.38,40.71-33.57,61.07-2.76,5.01,4.91,9.5,7.67,4.48,39.61-72.06,79.23-144.12,118.84-216.18,11.19-20.36,22.38-40.71,33.57-61.07,2.76-5.01-4.91-9.5-7.67-4.48h0Z"/>
        <path class="cls-1" d="m491.28,26.65c-.68-5.51-1.61-14.3,4.59-17.16,5.04-2.32,11.7,1.16,16.03,3.64,17.78,10.2,34.85,22.03,51.64,33.78,33.68,23.56,65.86,49.25,96.32,76.85,14.86,13.46,35.3,28.33,39.26,49.21,1.06,5.61,9.63,3.23,8.57-2.36-3.9-20.57-21.71-34.93-36.31-48.35-17.13-15.75-34.82-30.89-53.02-45.39-17.97-14.31-36.41-28.03-55.32-41.09-9.71-6.71-19.54-13.24-29.49-19.59-8.17-5.22-16.28-11.18-25.46-14.48-6.37-2.3-13.23-2.69-18.91,1.53-7.28,5.41-7.81,15.16-6.79,23.43.69,5.6,9.59,5.67,8.88,0h0Z"/>
        <path class="cls-1" d="m698.96,181.49c-4.12,128.81-8.15,257.62-14.18,386.36-1.7,36.27-3.56,72.54-5.62,108.79-.32,5.71,8.56,5.69,8.88,0,7.31-128.67,12.06-257.46,16.3-386.27,1.19-36.3,2.35-72.59,3.51-108.89.18-5.72-8.7-5.71-8.88,0h0Z"/>
        <path class="cls-1" d="m678.73,676.83c-14.11,35.57-55.82,44.03-89.96,38.27-48.71-8.22-84.03-43.69-118.38-76.4-24.39-23.22-48.78-46.45-73.17-69.67-4.14-3.94-10.43,2.33-6.28,6.28,23.33,22.22,46.66,44.43,69.99,66.65,21.21,20.19,42.01,40.89,66.39,57.32,33.29,22.43,78.12,34.8,117.22,20.67,19.74-7.14,34.99-21.16,42.76-40.75,2.11-5.32-6.48-7.62-8.57-2.36h0Z"/>
        <path class="cls-1" d="m495.29,29.8c36.13,28.82,74.8,54.22,111.43,82.37,9.54,7.33,18.93,14.88,28.07,22.72,8.21,7.04,18.31,14.41,23.47,24.17,6.11,11.53-1.82,21.01-12.58,25.32-10.28,4.12-21.98,3.79-32.55,1.05-22.78-5.9-42.69-21.77-62.03-34.53-20.52-13.55-40.93-27.25-61.24-41.11-20.9-14.27-41.69-28.71-62.36-43.31-10.04-7.09-20.05-14.23-30.04-21.4-9.12-6.55-18.31-15.04-28.62-19.63-8.61-3.83-17.94-2.15-23.83,5.39-5.54,7.09-7.11,16.51-7.92,25.23-2.64,28.35-4.71,56.77-7.06,85.14-.47,5.7,8.41,5.67,8.88,0,2.11-25.47,4.22-50.94,6.34-76.41.76-9.11.7-20.22,6.32-27.98,7.5-10.35,19.18-.12,26.45,5.14,41,29.69,82.48,58.72,124.41,87.08,20.97,14.18,42.04,28.19,63.23,42.03,18.55,12.12,38.3,24.58,61.16,25.24,17.42.5,43.67-8.4,42.7-29.9-.44-9.8-7.17-18.14-13.85-24.73-8.22-8.09-17.25-15.48-26.19-22.77-41.25-33.64-86.31-62.22-127.91-95.41-4.43-3.53-10.75,2.72-6.28,6.28h0Z"/>
        <path class="cls-1" d="m495.12,23.03c-37.58,4.62-75.3,7.97-113.11,10.07-5.69.32-5.72,9.2,0,8.88,37.81-2.1,75.53-5.46,113.11-10.07,5.6-.69,5.67-9.58,0-8.88h0Z"/>
        <path class="cls-1" d="m552.65,193.49c-12.58,125.65-19.36,251.82-24.79,377.96-1.53,35.57-2.93,71.15-4.28,106.72-.22,5.72,8.67,5.71,8.88,0,4.83-127.04,10.2-254.11,19.94-380.88,2.66-34.63,5.67-69.24,9.13-103.8.57-5.68-8.32-5.64-8.88,0h0Z"/>
        <path class="cls-1" d="m667.67,119.41c.68-6.07,5.59-8.74,11.03-10.56,4.28-1.43,7.23-1.1,10.85,1.14,4.57,2.83,8.96,5.96,13.32,9.12,13.14,9.52,25.89,19.58,38.57,29.7,28.19,22.49,55.97,45.5,83.42,68.89,14.35,12.23,34.4,25.28,38.01,44.85,1.04,5.61,9.6,3.24,8.57-2.36-3.74-20.21-22.29-33.37-37.02-45.97-13.63-11.66-27.39-23.18-41.2-34.63-29.44-24.39-58.9-49.21-90.18-71.24-5.25-3.7-11.57-9.14-18.24-9.41-6.33-.25-13.01,2.54-18.12,6.1-5.21,3.62-7.18,8.2-7.88,14.37-.64,5.67,8.25,5.63,8.88,0h0Z"/>
        <path class="cls-1" d="m688.58,654.19c25.66,23.75,61.09,42.54,96.72,43.04,26.62.38,62.06-16.24,62.86-46.81.15-5.72-8.73-5.72-8.88,0-.33,12.41-9.45,22.19-19.42,28.53-12.29,7.81-26.28,10.29-40.71,9.08-31.19-2.61-61.63-19.17-84.29-40.14-4.19-3.88-10.49,2.39-6.28,6.28h0Z"/>
        <path class="cls-1" d="m849.39,649.03c3.9-23.67,4.71-47.69,6.03-71.6,1.36-24.77,2.72-49.53,4.08-74.3,2.75-50.01,5.49-100.02,8.24-150.04,1.55-28.31,3.11-56.63,4.66-84.94.31-5.71-8.57-5.7-8.88,0-5.42,98.71-10.84,197.42-16.26,296.14-1.51,27.43-1.96,55.22-6.43,82.38-.92,5.59,7.64,8,8.57,2.36h0Z"/>
        <path class="cls-1" d="m703.29,242.47c12.55,10.59,25.4,20.99,38.95,30.27,14.69,10.07,30.95,21.31,49.09,23.53,20.54,2.51,54.32-8.8,54.46-33.86.05-8.9-4.64-16.08-10.24-22.51-6.74-7.74-14.42-14.69-22.09-21.49-21.47-19.05-44.1-36.81-66.76-54.42-12.31-9.57-24.68-19.05-37.05-28.53-5.2-3.98-10.4-7.96-15.58-11.96-6.44-4.96-13.67-5.73-20.46-.56-4.49,3.42-.07,11.14,4.48,7.67,2.83-2.15,5.81-3.34,9.01-1.35,2.07,1.29,3.95,3.05,5.89,4.54,4.22,3.25,8.45,6.48,12.68,9.72,9.87,7.56,19.73,15.12,29.56,22.73,20.75,16.07,41.42,32.29,61.41,49.3,8.07,6.87,16.07,13.87,23.66,21.28,4.83,4.71,10.14,9.65,13.64,15.48,13.14,21.9-18.79,35.09-35.71,35.44-17.55.37-33.68-10.68-47.65-20.07-14.31-9.62-27.83-20.37-41-31.49-4.34-3.67-10.66,2.59-6.28,6.28h0Z"/>
        <path class="cls-1" d="m735.96,647.96c3.89-89.9,7.23-179.83,9.99-269.78.79-25.8,1.54-51.61,2.24-77.42.16-5.72-8.73-5.72-8.88,0-2.45,89.96-5.45,179.9-9.02,269.81-1.02,25.8-2.1,51.59-3.21,77.38-.25,5.72,8.64,5.7,8.88,0h0Z"/>
      </g>
      <path class="cls-1" d="m235.87,164.32c22.82,25.78,47,50.32,71.86,74.13,25.21,24.15,51.13,47.55,77.28,70.68,14.45,12.79,28.98,25.49,43.5,38.2,2.14,1.88,5.3-1.25,3.14-3.14-25.93-22.7-51.88-45.39-77.41-68.55-25.84-23.44-51.27-47.35-75.74-72.24-13.51-13.75-26.72-27.8-39.5-42.23-1.9-2.14-5.03,1.01-3.14,3.14h0Z"/>
      <path class="cls-1" d="m250.32,160.7c22.87,25.83,47.26,50.29,72.34,73.97,25.32,23.91,51.37,47.05,77.57,70,14.54,12.73,29.12,25.41,43.66,38.13,2.14,1.88,5.3-1.25,3.14-3.14-26-22.75-52.14-45.35-77.89-68.39-25.93-23.21-51.49-46.86-76.02-71.55-13.6-13.69-26.86-27.71-39.66-42.16-1.9-2.14-5.03,1.01-3.14,3.14h0Z"/>
      <path class="cls-1" d="m271.99,161.91c43.39,49.01,92.01,92.83,141.27,135.8,14.25,12.43,28.53,24.8,42.76,37.25,2.14,1.88,5.3-1.25,3.14-3.14-49.2-43.05-99.25-85.27-145.29-131.75-13.28-13.41-26.22-27.17-38.73-41.3-1.9-2.14-5.03,1.01-3.14,3.14h0Z"/>
      <path class="cls-1" d="m290.49,162.31c20.64,23.32,42.48,45.52,65.3,66.71,21.49,19.96,43.76,39.05,66.02,58.14,13.82,11.84,27.63,23.69,41.33,35.68,2.14,1.88,5.3-1.25,3.14-3.14-45.51-39.82-92.61-77.93-135.35-120.8-12.83-12.87-25.26-26.12-37.3-39.72-1.9-2.14-5.03,1.01-3.14,3.14h0Z"/>
      <path class="cls-1" d="m403.86,36.57c56.67,41.72,114.13,82.34,171.94,122.45,15.63,10.84,31.29,21.65,46.96,32.44,2.36,1.63,4.58-2.22,2.24-3.84-56.79-39.11-113.39-78.48-169.33-118.8-16.58-11.95-33.11-23.98-49.57-36.1-2.3-1.7-4.52,2.16-2.24,3.84h0Z"/>
      <path class="cls-1" d="m460.99,35.28c50.38,37.12,98.93,76.65,149.27,113.82,14.41,10.64,28.99,21.05,43.74,31.22,2.36,1.63,4.58-2.22,2.24-3.84-50.39-34.73-98.12-72.94-146.66-110.16-15.34-11.76-30.78-23.41-46.35-34.87-2.3-1.7-4.52,2.16-2.24,3.84h0Z"/>
      <path class="cls-1" d="m437.56,39.74c52.37,38.57,104.18,77.92,157.09,115.77,14.86,10.63,29.8,21.13,44.85,31.49,2.36,1.63,4.58-2.22,2.24-3.84-52.41-36.11-103.42-74.14-154.47-112.11-15.8-11.75-31.61-23.48-47.46-35.15-2.3-1.7-4.52,2.16-2.24,3.84h0Z"/>
      <path class="cls-1" d="m478.84,33.05c46.5,34.25,91.79,70.12,138.53,104.05,13.94,10.12,28.02,20.05,42.21,29.83,2.36,1.63,4.58-2.22,2.24-3.84-46.42-31.98-90.98-66.38-135.91-100.39-14.87-11.26-29.8-22.42-44.82-33.49-2.3-1.7-4.52,2.16-2.24,3.84h0Z"/>
      <path class="cls-1" d="m701.36,220.5c31.71,25.76,67.32,46.29,99.79,71.06,2.27,1.73,4.49-2.12,2.24-3.84-16.98-12.95-34.66-24.94-52.33-36.91-15.82-10.71-31.71-21.4-46.55-33.45-2.2-1.79-5.36,1.34-3.14,3.14h0Z"/>
      <path class="cls-1" d="m684.63,140.91c39.26,31.85,79.15,62.92,118.55,94.6,11.33,9.11,22.61,18.28,33.84,27.52,2.19,1.8,5.35-1.32,3.14-3.14-38.82-31.96-78.44-62.93-117.76-94.28-11.58-9.23-23.13-18.51-34.63-27.84-2.2-1.79-5.36,1.34-3.14,3.14h0Z"/>
      <path class="cls-1" d="m707.43,185.06c30.26,24.4,61.69,47.26,92.49,70.96,9.23,7.1,18.39,14.3,27.45,21.61,2.21,1.78,5.37-1.35,3.14-3.14-30.26-24.4-61.69-47.26-92.49-70.96-9.23-7.1-18.39-14.3-27.45-21.61-2.21-1.78-5.37,1.35-3.14,3.14h0Z"/>
      <path class="cls-1" d="m706.42,204.3c14.84,11.85,30.61,22.59,46.17,33.45,16.58,11.57,33.29,22.95,49.75,34.7,4.47,3.19,9.49,6.25,13.39,10.17,2.02,2.03,5.16-1.11,3.14-3.14-3.32-3.34-7.53-6-11.33-8.74-7.19-5.18-14.46-10.24-21.74-15.3-17.78-12.37-35.64-24.63-53.27-37.22-7.76-5.54-15.53-11.1-22.98-17.05-2.21-1.77-5.38,1.36-3.14,3.14h0Z"/>
    </g>
  </g>
</svg>