<svg xmlns="http://www.w3.org/2000/svg" id="Layer_2" data-name="Layer 2" viewBox="0 0 167.11 200.42"><defs><style>.cls-1{fill:#fff}.cls-3{fill:#231f20}</style></defs><g id="Layer_1-2" data-name="Layer 1"><path d="M83.75 115.18c-2.76 3.7-6.14 6.82-9.94 9.28 3.42 1.34 6.68 2.79 9.75 4.34 3.14-1.58 6.48-3.06 9.99-4.43a38.286 38.286 0 0 1-9.79-9.18Z" style="fill:none"/><path d="M118.91 61.51c-28.45-4.16-31.2 26.18-38.46 16.34-23.88-40.88-81.16 1.54-49.26 36.27 11.7 1.44 22.84 3.78 32.93 6.94 14.34-4.1 16.63-22.79 22.93-14.57a30.881 30.881 0 0 0 16.16 14.5c10.16-3.16 21.37-5.5 33.15-6.92 17.95-16.46 7.23-49.97-17.46-52.55Z" class="cls-1"/><path d="M101.42 162.8c.71 11.4-9.3 18.21-19.93 16.95-3.54-.36-10.09-.43-10.15-5.15v-24.82c.81-4.54 8.29-3.47 11.69-3.93 10.21-.56 18.99 6.22 18.39 16.95Zm-9.57.16c.37-7.17-4.84-10.74-11.27-9.41v18.49c6.21 1.42 11.64-2.06 11.27-9.09Zm-40.89 8.23c-18.41-1.16-14.19-22.93-15.06-35.39 3.97-.18 9.77-.17 9.44 5.28.54 3.19-.84 18.53 1.86 20.81 2.8 3.34 9 2.24 8.49-2.89l-.34-20.61c3.93-.18 9.68-.17 9.29 5.24-.19 10.82 3.99 30.42-13.68 27.56Zm56.62-.58c-2.61-1.11-.44-23.59-.93-25.88.01-3.05 1.98-5.41 5-5.92l17.55-3.16c4.72 9.48-8.31 8.38-13.61 9.86l-.1 5.01 11.88-2.11c4.4 8.88-6.79 8.12-12.02 9.38l-.11 5.57 13.47-2.36c1.57 2.52 1.12 7.27-2.4 7.67-2.54-.05-16.77 4.18-18.73 1.96ZM31.35 139.5c.14 1.7-.72 3.09-2.01 3.89-20.56-14.12-18.02 25.1 1.36 15.25 9.99 14.32-21.28 8.94-23.39-1.94-11-24.55 18.42-31.74 24.04-17.2m111.98 15.34-.87 11.56c-3.19.84-9.01 2.08-8.24-3.11l1.55-28.73c12.19-4.09 8.31 4.77 8.14 12.5l12.01-14.5c14.68-.01-.34 13.76-4.46 17.79 3.07 3.83 6.37 7.58 9.02 10.78-4.84 12.68-13.1-1.22-17.15-6.29M65.51 104.7c.14 9.73-15.15 9.73-15.01 0-.14-9.73 15.15-9.73 15.01 0m51.73 0c.14 9.73-15.15 9.73-15.01 0-.14-9.73 15.15-9.73 15.01 0" class="cls-3"/><path d="M83.67 28.4v16.77" class="cls-1"/><path d="M83.67 47.84A2.67 2.67 0 0 1 81 45.17V28.4a2.67 2.67 0 1 1 5.34 0v16.77c0 1.48-1.2 2.67-2.67 2.67" class="cls-3"/><path d="m73.74 28.4-3.68 13.46" class="cls-1"/><path d="M70.07 44.53c-1.73.02-3.06-1.71-2.58-3.38l3.68-13.46c.87-3.35 6.12-1.93 5.16 1.41l-3.68 13.46a2.677 2.677 0 0 1-2.58 1.97" class="cls-3"/><path d="m93.6 28.4 3.67 13.46" class="cls-1"/><path d="M97.27 44.53c-1.18 0-2.25-.78-2.58-1.97L91.01 29.1c-.96-3.33 4.29-4.77 5.16-1.41l3.68 13.46c.48 1.67-.85 3.4-2.58 3.38ZM42.16 99.21c-1.23 0-2.23-1-2.23-2.23 0-9.31 7.57-16.88 16.88-16.88 2.89-.04 2.9 4.5 0 4.46-15.06 1.06-9.95 14.21-14.65 14.65Zm83.01 0c1.23 0 2.23-1 2.23-2.23 0-9.31-7.57-16.88-16.88-16.88-2.89-.04-2.9 4.5 0 4.46 15.06 1.06 9.95 14.21 14.65 14.65Z" class="cls-3"/><path d="M83.59 200.42c-18.03-7.93-40.62-14.27-66.65-13.87-4.82.07-4.84-7.52 0-7.45 25.12 0 49.31 4.94 66.62 13.58 17.31-8.64 41.5-13.58 66.62-13.58 4.82-.07 4.84 7.52 0 7.45-25.96-.37-48.52 5.87-66.59 13.88Zm.95-7.25.08.04c-.03-.02-.06-.03-.08-.04m-.99-55.98c-20.64-11.24-48.92-17.21-79.83-17.29A3.72 3.72 0 0 1 0 116.18c4.05-12.82 79.58 7.83 83.55 12.62 3.52-4.64 79.64-25.5 83.56-12.62 0 2.06-1.67 3.72-3.73 3.72-30.92.08-59.18 6.05-79.83 17.29ZM22.16 69.35c-6.47-81.77 129.25-81.92 123.04-.19 2.64 3.52 4.69 7.51 6.01 11.78 22.14-108.17-157.65-107.76-135 .27 1.29-4.3 3.32-8.31 5.95-11.86Z"/><path d="M87.05 106.48c-6.28-8.23-8.61 10.48-22.93 14.57 3.29 1.03 6.52 2.16 9.68 3.4 3.8-2.45 7.18-5.58 9.94-9.28 2.73 3.65 6.05 6.75 9.79 9.18 3.16-1.24 6.38-2.36 9.67-3.38a30.922 30.922 0 0 1-16.16-14.5Z"/><path d="M118.66 53.97c-13.83-1.47-26.92 4.47-34.91 15.17-29.63-38.77-89.11 2.68-62.93 43.95 3.47.26 6.94.6 10.37 1.02C-.7 79.36 56.57 36.98 80.45 77.84c7.23 9.85 10.04-20.5 38.46-16.34 24.67 2.58 35.41 36.1 17.46 52.55 3.42-.41 6.88-.75 10.34-1 15.75-22.65-.33-56.89-28.04-59.09Z"/></g></svg>