<svg xmlns="http://www.w3.org/2000/svg" id="Layer_2" data-name="Layer 2" viewBox="0 0 167.11 200.46"><defs><style>.cls-1{fill:#fff}.cls-3{fill:#231f20}</style></defs><g id="Layer_1-2" data-name="Layer 1"><path d="M83.75 115.22c-2.76 3.7-6.14 6.82-9.94 9.28 3.42 1.34 6.68 2.79 9.75 4.34 3.14-1.58 6.48-3.06 9.99-4.43a38.286 38.286 0 0 1-9.79-9.18Z" style="fill:none"/><path d="M118.91 61.55c-13.24-1.85-25.82 4.78-31.86 16.34-1.39 2.66-5.21 2.66-6.6 0-6.04-11.56-18.62-18.19-31.86-16.33-14.4 2.01-25.56 14.13-26.49 28.64-.6 9.37 3 17.92 9.09 23.97 11.7 1.44 22.84 3.78 32.93 6.94a30.963 30.963 0 0 0 16.33-14.57c1.39-2.66 5.21-2.66 6.6 0a30.881 30.881 0 0 0 16.16 14.5c10.16-3.16 21.37-5.5 33.15-6.92 6.06-6.05 9.64-14.6 9.03-23.95-.94-14.5-12.1-26.59-26.49-28.6Z" class="cls-1"/><path d="M101.42 162.84c0 2.84-.42 5.31-1.28 7.44-.85 2.12-2.06 3.9-3.64 5.31-1.58 1.42-3.46 2.48-5.66 3.19s-4.62 1.06-7.28 1.06c-.6 0-1.29-.02-2.07-.05s-1.59-.11-2.42-.21c-.83-.11-1.67-.24-2.5-.4-.83-.16-1.6-.38-2.31-.66-1.95-.74-2.92-2.04-2.92-3.88v-24.82c0-.74.2-1.32.61-1.73.41-.41.96-.74 1.67-.98 1.52-.5 3.14-.82 4.84-.98 1.7-.16 3.22-.24 4.57-.24 2.76 0 5.27.34 7.52 1.01 2.25.67 4.18 1.71 5.79 3.11 1.61 1.4 2.86 3.16 3.75 5.29.89 2.13 1.33 4.64 1.33 7.55Zm-9.57.16c0-3.19-.74-5.59-2.23-7.2-1.49-1.61-3.47-2.42-5.95-2.42-.5 0-1 .02-1.51.05-.51.04-1.04.09-1.57.16v18.49c.39.07.87.13 1.44.19.57.05 1.1.08 1.59.08 2.45 0 4.43-.78 5.95-2.34s2.29-3.9 2.29-7.02Zm-40.89 8.23c-2.19-.27-4.16-.81-5.91-1.63-1.76-.81-3.26-1.85-4.51-3.11a13.558 13.558 0 0 1-2.92-4.38c-.69-1.66-1.07-3.45-1.12-5.37l-.59-20.91c.43-.02 1.05-.03 1.87-.05.82-.02 1.63.03 2.45.14 1.78.24 3.07.72 3.87 1.44.8.72 1.21 1.98 1.25 3.75l.38 16.64c.04 1.7.53 3.09 1.48 4.17.95 1.07 2.15 1.7 3.62 1.88s2.65-.14 3.55-.97c.91-.84 1.35-2.1 1.32-3.8l-.34-20.61c.42-.02 1.04-.03 1.85-.05.81-.02 1.62.03 2.43.13 1.76.24 3.03.71 3.81 1.43.78.72 1.18 1.96 1.2 3.73l.18 16.69c.02 1.9-.28 3.6-.9 5.08s-1.53 2.69-2.73 3.64c-1.2.95-2.65 1.61-4.37 1.99-1.72.38-3.67.43-5.86.16Zm56.62-.58c-.85-.72-1.27-1.84-1.25-3.34l.32-22.54c.02-1.55.48-2.86 1.37-3.92.89-1.06 2.1-1.73 3.62-2.01l17.55-3.16c.24.36.45.83.62 1.41.18.58.26 1.26.23 2.02-.04 1.34-.35 2.37-.93 3.09-.58.72-1.37 1.16-2.36 1.34l-11.17 2-.1 5.01 11.88-2.11c.24.35.44.82.62 1.39.18.58.26 1.24.24 1.99-.04 1.32-.34 2.33-.92 3.01-.58.69-1.36 1.12-2.34 1.29l-9.61 1.7-.11 5.57 13.47-2.36c.23.35.44.82.61 1.42.17.6.25 1.27.23 2.01-.04 1.3-.34 2.29-.92 2.97s-1.35 1.1-2.32 1.27l-15.22 2.65c-1.49.26-2.66.03-3.51-.69Zm-76.23-31.11c.05.96-.13 1.76-.54 2.41-.41.65-.9 1.14-1.47 1.48-.95-.71-1.95-1.34-3.01-1.89-1.07-.55-2.29-.89-3.67-1.03-2.74-.28-4.78.39-6.11 2-1.33 1.61-1.87 4-1.62 7.14s1.24 5.7 2.92 7.46c1.68 1.74 3.88 2.72 6.6 2.94 1.41.12 2.59.02 3.54-.28.95-.3 1.85-.66 2.71-1.08.61.54 1.09 1.16 1.45 1.86.36.7.56 1.5.61 2.4.04.79-.12 1.5-.48 2.12-.37.62-1.02 1.11-1.97 1.49-.59.23-1.43.44-2.53.63-1.1.19-2.45.23-4.05.11-2.33-.17-4.53-.66-6.62-1.47s-3.99-1.97-5.65-3.46c-1.67-1.5-3.06-3.37-4.15-5.61-1.1-2.26-1.79-4.92-2.08-7.99-.27-2.88-.06-5.4.63-7.56.69-2.17 1.75-3.95 3.17-5.34 1.42-1.39 3.14-2.37 5.16-2.94s4.19-.72 6.53-.46c3.3.37 5.87 1.21 7.73 2.53s2.81 2.83 2.91 4.57Zm111.98 15.34-.87 11.56c-.36.12-.92.26-1.67.41-.75.15-1.51.25-2.28.3-1.7.12-2.86-.1-3.49-.65-.62-.55-.9-1.61-.81-3.18l1.55-28.73c.42-.11 1.03-.27 1.84-.48.81-.21 1.61-.34 2.41-.41 1.74-.15 2.98.07 3.7.65.72.59 1.01 1.82.87 3.7l-.68 9.04 12.01-14.5c2.42-.21 4.1.13 5.04 1.04.94.9 1.32 2.03 1.17 3.38-.12 1-.45 1.95-1.01 2.86-.55.91-1.4 1.95-2.53 3.12l-7.13 7.38c1.95 2.41 3.71 4.52 5.29 6.36s2.8 3.29 3.73 4.42c-.09.75-.3 1.43-.63 2.02a5.806 5.806 0 0 1-2.85 2.56c-.58.24-1.18.38-1.8.42-1.34.09-2.4-.18-3.19-.8-.78-.63-1.53-1.39-2.22-2.28l-6.46-8.21Z" class="cls-3"/><circle cx="58.01" cy="104.74" r="7.5" class="cls-3"/><circle cx="109.74" cy="104.74" r="7.5" class="cls-3"/><path d="M83.67 28.44v16.77" class="cls-1"/><path d="M83.67 47.88A2.67 2.67 0 0 1 81 45.21V28.44a2.67 2.67 0 1 1 5.34 0v16.77c0 1.48-1.2 2.67-2.67 2.67" class="cls-3"/><path d="M73.74 28.44 70.06 41.9" class="cls-1"/><path d="M70.07 44.57c-.23 0-.47-.03-.71-.09a2.672 2.672 0 0 1-1.87-3.28l3.68-13.46a2.672 2.672 0 0 1 3.28-1.87c1.42.39 2.26 1.86 1.87 3.28l-3.68 13.46a2.677 2.677 0 0 1-2.58 1.97Z" class="cls-3"/><path d="m93.6 28.44 3.67 13.46" class="cls-1"/><path d="M97.27 44.57c-1.18 0-2.25-.78-2.58-1.97l-3.68-13.46c-.39-1.42.45-2.89 1.87-3.28 1.42-.39 2.89.45 3.28 1.87l3.68 13.46c.39 1.42-.45 2.89-1.87 3.28-.24.06-.47.09-.71.09ZM42.16 99.26c-1.23 0-2.23-1-2.23-2.23 0-9.31 7.57-16.88 16.88-16.88 1.23 0 2.23 1 2.23 2.23s-1 2.23-2.23 2.23c-6.85 0-12.42 5.57-12.42 12.42 0 1.23-1 2.23-2.23 2.23Zm83.01 0c1.23 0 2.23-1 2.23-2.23 0-9.31-7.57-16.88-16.88-16.88-1.23 0-2.23 1-2.23 2.23s1 2.23 2.23 2.23c6.85 0 12.42 5.57 12.42 12.42 0 1.23 1 2.23 2.23 2.23Z" class="cls-3"/><path d="M83.59 200.46c-.84 0-1.69-.21-2.46-.63-16.27-8.4-39.7-13.25-64.19-13.25a3.72 3.72 0 1 1 0-7.44c25.12 0 49.31 4.94 66.62 13.58 17.31-8.64 41.5-13.58 66.62-13.58a3.72 3.72 0 1 1 0 7.44c-24.43 0-47.8 4.82-64.14 13.22-.74.43-1.59.65-2.45.65Zm.95-7.25.08.04c-.03-.02-.06-.03-.08-.04m-.99-55.98-1.74-.92c-19.73-10.41-48.19-16.38-78.09-16.38a3.72 3.72 0 1 1 0-7.44c30.21 0 59.16 5.94 79.83 16.34 20.67-10.4 49.62-16.34 79.83-16.34a3.72 3.72 0 1 1 0 7.44c-29.9 0-58.36 5.97-78.09 16.38zM22.16 69.39c-.14-1.62-.23-3.26-.23-4.91 0-31.17 25.36-56.53 56.53-56.53h10.43c31.17 0 56.53 25.36 56.53 56.53 0 1.59-.09 3.16-.22 4.72 2.64 3.52 4.69 7.51 6.01 11.78 1.4-5.27 2.16-10.8 2.16-16.5C153.36 28.93 124.44 0 88.88 0H78.45C42.9 0 13.97 28.93 13.97 64.48c0 5.8.79 11.42 2.23 16.78 1.29-4.3 3.32-8.31 5.95-11.86Z"/><path d="M87.05 106.52c-1.39-2.66-5.21-2.66-6.6 0a30.963 30.963 0 0 1-16.33 14.57c1.76.55 3.49 1.13 5.19 1.73 1.53.54 3.03 1.1 4.5 1.68 3.8-2.45 7.18-5.58 9.94-9.28 2.73 3.65 6.05 6.75 9.79 9.18 1.47-.58 2.97-1.13 4.5-1.67 1.69-.59 3.42-1.16 5.17-1.71a30.922 30.922 0 0 1-16.16-14.5Z"/><path d="M118.66 54.01c-13.83-1.47-26.92 4.47-34.91 15.17-7.99-10.7-21.09-16.64-34.91-15.17-19.4 2.06-34.3 18.79-34.25 38.3a38.07 38.07 0 0 0 6.23 20.81c1.63.12 3.24.26 4.85.42 1.85.18 3.69.38 5.52.61-6.09-6.05-9.68-14.6-9.09-23.97.92-14.51 12.09-26.62 26.49-28.64 13.24-1.85 25.82 4.78 31.86 16.33 1.39 2.66 5.21 2.66 6.6 0 6.04-11.56 18.62-18.19 31.86-16.34 14.39 2.01 25.55 14.11 26.49 28.6.61 9.35-2.97 17.9-9.03 23.95 1.82-.22 3.65-.42 5.49-.59 1.61-.15 3.22-.29 4.84-.41 3.9-5.99 6.19-13.14 6.21-20.8.05-19.5-14.85-36.22-34.25-38.28Z"/></g></svg>