<svg xmlns="http://www.w3.org/2000/svg" width="960" height="200" viewBox="0 0 960 200"><path fill="#d6dbdc" d="m0 45 16 2.8c16 2.9 48 8.5 80 11.5s64 3.4 96 .5c32-2.8 64-8.8 96-11 32-2.1 64-.5 96 4s64 11.9 96 16c32 4.2 64 5.2 96-.8s64-19 96-24.3c32-5.4 64-3 96 4s64 18.6 96 20.6 64-5.6 80-9.5l16-3.8v146H0Z"/><path fill="#e0e4e4" d="m0 89 16-3.3c16-3.4 48-10 80-10.4 32-.3 64 5.7 96 6 32 .4 64-5 96-5.3 32-.3 64 4.3 96 3.5 32-.8 64-7.2 96-9 32-1.8 64 .8 96 2.5s64 2.3 96 2c32-.3 64-1.7 96-1.2s64 2.9 96 8.4 64 14.1 80 18.5l16 4.3v96H0Z"/><path fill="#eaeded" d="m0 114 16-2.8c16-2.9 48-8.5 80-6.9 32 1.7 64 10.7 96 11.4 32 .6 64-7 96-7.9 32-.8 64 5.2 96 6.7s64-1.5 96-5 64-7.5 96-6.5 64 7 96 9.7c32 2.6 64 2 96-.5s64-6.9 96-4.4 64 11.9 80 16.5l16 4.7v72H0Z"/><path fill="#f4f6f6" d="m0 150 16-2.3c16-2.4 48-7 80-9s64-1.4 96 .6 64 5.4 96 3.9c32-1.5 64-7.9 96-11.2 32-3.3 64-3.7 96-3.5 32 .2 64 .8 96 2.2 32 1.3 64 3.3 96 2.8s64-3.5 96-1.2c32 2.4 64 10 96 10.5s64-6.1 80-9.5l16-3.3v71H0Z"/><path fill="#fff" d="m0 160 16 .5c16 .5 48 1.5 80 2.3 32 .9 64 1.5 96 2.7 32 1.2 64 2.8 96 4.8s64 4.4 96 3.7c32-.7 64-4.3 96-5.7 32-1.3 64-.3 96-1.5 32-1.1 64-4.5 96-6.3 32-1.8 64-2.2 96-2.3 32-.2 64-.2 96 2.5 32 2.6 64 8 80 10.6l16 2.7v27H0Z"/></svg>