<svg xmlns="http://www.w3.org/2000/svg" width="960" height="100" viewBox="0 0 960 100"><path fill="#d6dbdc" d="m0 50 16-3.3c16-3.4 48-10 80-11.2 32-1.2 64 3.2 96 7.5s64 8.7 96 9.7 64-1.4 96-3.4 64-3.6 96-6.1c32-2.5 64-5.9 96-3.4 32 2.5 64 10.9 96 12.2 32 1.3 64-4.3 96-4.7 32-.3 64 4.7 96 5.7s64-2 80-3.5l16-1.5v53H0Z"/><path fill="#e3e7e7" d="m0 50 16 .5c16 .5 48 1.5 80 .8 32-.6 64-3 96-4.8 32-1.8 64-3.2 96-2 32 1.2 64 4.8 96 9.8 32 5 64 11.4 96 9.2 32-2.2 64-12.8 96-12.8s64 10.6 96 11.8c32 1.2 64-7.2 96-9.3 32-2.2 64 1.8 96 1.3s64-5.5 80-8l16-2.5v57H0Z"/><path fill="#f1f3f3" d="m0 68 16-1.3c16-1.4 48-4 80-3.2 32 .8 64 5.2 96 4.2s64-7.4 96-9c32-1.7 64 1.3 96 5.8S448 75 480 77s64 0 96-3.7c32-3.6 64-9 96-11.1 32-2.2 64-1.2 96 .6 32 1.9 64 4.5 96 6.5s64 3.4 80 4l16 .7v27H0Z"/><path fill="#fff" d="m0 73 16 2c16 2 48 6 80 7.5s64 .5 96-1.5 64-5 96-5 64 3 96 4.8c32 1.9 64 2.5 96 1.7s64-3.2 96-3.3c32-.2 64 1.8 96 1.6 32-.1 64-2.5 96-4.1 32-1.7 64-2.7 96-1.2 32 1.5 64 5.5 80 7.5l16 2v16H0Z"/></svg>