<?xml version="1.0" standalone="no"?><svg xmlns="http://www.w3.org/2000/svg" viewBox="0 0 1440 320"><path fill="#f3f4f5" fill-opacity="0.1" d="M0,224L40,213.3C80,203,160,181,240,160C320,139,400,117,480,138.7C560,160,640,224,720,208C800,192,880,96,960,58.7C1040,21,1120,43,1200,53.3C1280,64,1360,64,1400,64L1440,64L1440,320L1400,320C1360,320,1280,320,1200,320C1120,320,1040,320,960,320C880,320,800,320,720,320C640,320,560,320,480,320C400,320,320,320,240,320C160,320,80,320,40,320L0,320Z"></path></svg>